<?xml version="1.0" encoding="UTF-8"?>
<svg id="_Слой_1" data-name="Слой 1" xmlns="http://www.w3.org/2000/svg" viewBox="0 0 497.93 115.64">
  <defs>
    <style>
      .cls-1 {
        fill: #fff;
      }
    </style>
  </defs>
  <g>
    <path class="cls-1" d="M115.93,34.33c.85,0,1.65,.06,2.38,.19,.74,.13,1.41,.29,2.03,.48l-.51,2.6c-.64-.18-1.26-.3-1.84-.37-.59-.07-1.12-.11-1.6-.11-1.54,0-2.71,.48-3.52,1.43-.8,.96-1.2,2.41-1.2,4.35,0,.95,.08,1.78,.24,2.49,.16,.71,.43,1.31,.81,1.8,.38,.48,.87,.84,1.49,1.08s1.38,.36,2.28,.36c.19,0,.44-.01,.76-.04,.31-.03,.65-.06,1.01-.11,.36-.05,.72-.11,1.08-.17,.36-.06,.7-.14,1.02-.22l.58,2.46c-.35,.14-.74,.27-1.17,.37-.43,.11-.87,.2-1.33,.28-.46,.08-.92,.14-1.38,.18-.47,.04-.91,.06-1.33,.06-1.53,0-2.79-.22-3.79-.65-1-.43-1.81-1.03-2.41-1.79-.6-.76-1.02-1.65-1.27-2.68-.24-1.02-.36-2.12-.36-3.31,0-.96,.12-1.96,.36-2.99,.24-1.03,.66-1.96,1.27-2.81,.6-.84,1.42-1.54,2.46-2.08,1.03-.55,2.35-.82,3.94-.82Z"/>
    <path class="cls-1" d="M134.07,34.67h1.72c.57,0,1.14,0,1.7,.03v16.53h-3.45v-11.28h-.1c-.79,1.27-1.57,2.54-2.34,3.81-.77,1.27-1.54,2.54-2.31,3.81l-2.29,3.66h-3.52v-16.53h3.52c0,1.91,0,3.82-.01,5.72,0,1.9-.01,3.81-.01,5.72h.1l1.98-3.2c.34-.59,.74-1.28,1.22-2.05,.47-.77,.95-1.54,1.43-2.32,.48-.78,.94-1.51,1.36-2.21,.43-.69,.76-1.25,1-1.69Z"/>
    <path class="cls-1" d="M140.72,34.64h11.23v2.43h-7.66v4.05h3.49c.87,0,1.66,.1,2.37,.31,.71,.21,1.33,.52,1.83,.93,.51,.41,.9,.92,1.18,1.53,.28,.61,.42,1.32,.42,2.14s-.13,1.53-.39,2.17-.62,1.18-1.08,1.63c-.47,.44-1.03,.78-1.69,1.02-.66,.24-1.4,.36-2.22,.36h-7.49v-16.58Zm3.56,8.89v5.25h3.08c.67,0,1.26-.23,1.76-.69,.5-.46,.75-1.14,.75-2.04,0-.45-.07-.83-.22-1.16-.15-.32-.34-.59-.59-.8s-.54-.36-.87-.44c-.33-.09-.68-.13-1.05-.13h-2.87Z"/>
    <path class="cls-1" d="M166.9,34.67h1.72c.57,0,1.14,0,1.7,.03v16.53h-3.45v-11.28h-.1c-.79,1.27-1.57,2.54-2.34,3.81-.77,1.27-1.54,2.54-2.31,3.81l-2.29,3.66h-3.52v-16.53h3.52c0,1.91,0,3.82-.01,5.72,0,1.9-.01,3.81-.01,5.72h.1l1.98-3.2c.34-.59,.74-1.28,1.22-2.05,.47-.77,.95-1.54,1.43-2.32,.48-.78,.94-1.51,1.36-2.21,.42-.69,.76-1.25,1-1.69Z"/>
    <path class="cls-1" d="M185.84,39.73c0,.6-.1,1.2-.29,1.81-.19,.61-.51,1.16-.94,1.65-.43,.49-.99,.89-1.67,1.2-.68,.31-1.51,.47-2.49,.47h-3.01l.02,6.36h-3.59v-16.58h6.29c1.9,0,3.32,.46,4.26,1.37,.95,.92,1.42,2.15,1.42,3.71Zm-8.41-2.55v5.25h2.34c.32,0,.63-.04,.93-.13,.3-.09,.56-.24,.78-.44,.22-.21,.41-.48,.54-.81,.14-.34,.21-.74,.21-1.22,0-.94-.24-1.62-.73-2.03-.49-.41-1.1-.61-1.84-.61h-2.22Z"/>
    <path class="cls-1" d="M195.79,34.33c.85,0,1.65,.06,2.38,.19,.74,.13,1.41,.29,2.03,.48l-.51,2.6c-.64-.18-1.26-.3-1.84-.37-.59-.07-1.12-.11-1.6-.11-1.54,0-2.71,.48-3.52,1.43-.8,.96-1.2,2.41-1.2,4.35,0,.95,.08,1.78,.24,2.49,.16,.71,.43,1.31,.81,1.8,.38,.48,.87,.84,1.49,1.08s1.38,.36,2.28,.36c.19,0,.44-.01,.76-.04,.31-.03,.65-.06,1.01-.11,.36-.05,.72-.11,1.08-.17,.36-.06,.7-.14,1.02-.22l.58,2.46c-.35,.14-.74,.27-1.17,.37-.43,.11-.87,.2-1.33,.28-.46,.08-.92,.14-1.38,.18-.47,.04-.91,.06-1.33,.06-1.53,0-2.79-.22-3.79-.65-1-.43-1.81-1.03-2.41-1.79-.6-.76-1.02-1.65-1.27-2.68-.24-1.02-.36-2.12-.36-3.31,0-.96,.12-1.96,.36-2.99,.24-1.03,.66-1.96,1.27-2.81,.6-.84,1.42-1.54,2.46-2.08,1.03-.55,2.35-.82,3.94-.82Z"/>
    <path class="cls-1" d="M212.8,42.5c.4,.1,.75,.25,1.04,.46,.29,.21,.53,.45,.73,.71,.2,.26,.36,.55,.48,.87,.12,.31,.23,.63,.33,.95l1.54,5.73h-3.57l-1.4-5.08c-.21-.75-.53-1.33-.95-1.72-.42-.39-1.06-.59-1.92-.59h-2.24v7.4h-3.49v-16.53h3.49v6.5h2.05c.26,0,.52-.03,.8-.08,.27-.06,.53-.16,.77-.33,.24-.16,.46-.39,.66-.69,.2-.3,.37-.69,.5-1.17l1.11-4.21h3.42l-1.2,4.75c-.18,.68-.44,1.27-.81,1.8-.36,.52-.8,.89-1.31,1.12l-.03,.12Z"/>
    <path class="cls-1" d="M229.71,34.67h1.72c.57,0,1.14,0,1.7,.03v16.53h-3.45v-11.28h-.1c-.79,1.27-1.57,2.54-2.34,3.81-.77,1.27-1.54,2.54-2.31,3.81l-2.29,3.66h-3.52v-16.53h3.52c0,1.91,0,3.82-.01,5.72,0,1.9-.01,3.81-.01,5.72h.1l1.98-3.2c.34-.59,.74-1.28,1.22-2.05,.47-.77,.95-1.54,1.43-2.32,.48-.78,.94-1.51,1.36-2.21,.43-.69,.76-1.25,1-1.69Z"/>
    <path class="cls-1" d="M247.25,34.67h1.72c.57,0,1.14,0,1.7,.03v16.53h-3.45v-11.28h-.1c-.79,1.27-1.57,2.54-2.34,3.81-.77,1.27-1.54,2.54-2.31,3.81l-2.29,3.66h-3.52v-16.53h3.52c0,1.91,0,3.82-.01,5.72,0,1.9-.01,3.81-.01,5.72h.1l1.98-3.2c.34-.59,.74-1.28,1.22-2.05,.47-.77,.95-1.54,1.43-2.32,.48-.78,.94-1.51,1.36-2.21,.42-.69,.76-1.25,1-1.69Zm-3.81-1.45c-.48,0-.94-.09-1.36-.26-.42-.18-.82-.41-1.19-.71-.37-.3-.71-.63-1.04-1.01-.32-.38-.62-.77-.89-1.19l1.45-1.08c.52,.69,1.05,1.2,1.61,1.54,.56,.34,1.06,.51,1.49,.51,.15,0,.33,0,.54-.03,.22-.02,.47-.08,.76-.21,.29-.12,.63-.3,1.01-.55,.39-.25,.83-.62,1.35-1.1l1.03,.94c-.38,.6-.78,1.09-1.19,1.49-.41,.4-.82,.73-1.23,.98-.41,.25-.81,.43-1.22,.53-.4,.1-.78,.16-1.13,.16Z"/>
    <path class="cls-1" d="M261.39,51.22v-16.58h11.39v2.53h-7.85v14.05h-3.54Z"/>
    <path class="cls-1" d="M287.96,42.93c0,1.22-.16,2.35-.48,3.38-.32,1.04-.8,1.94-1.45,2.7-.64,.76-1.44,1.36-2.4,1.79-.96,.43-2.07,.65-3.34,.65-1.35,0-2.51-.2-3.49-.61s-1.79-.99-2.42-1.74c-.63-.75-1.1-1.64-1.41-2.67-.31-1.04-.46-2.19-.46-3.46,0-1.19,.15-2.31,.44-3.35,.3-1.04,.76-1.96,1.39-2.75,.63-.79,1.43-1.4,2.41-1.85,.98-.45,2.16-.68,3.54-.68s2.56,.23,3.53,.69c.97,.46,1.76,1.08,2.37,1.85,.61,.78,1.06,1.69,1.34,2.72,.28,1.04,.42,2.14,.42,3.31Zm-3.78,.05c0-.75-.05-1.5-.16-2.23-.1-.73-.3-1.38-.58-1.95-.28-.57-.67-1.03-1.18-1.38-.51-.35-1.16-.53-1.96-.53s-1.49,.17-2.01,.52c-.52,.35-.94,.8-1.24,1.36-.3,.56-.51,1.21-.62,1.95-.11,.74-.17,1.5-.17,2.29,0,1.88,.3,3.33,.9,4.35,.6,1.02,1.65,1.53,3.14,1.53,.69,0,1.28-.15,1.78-.44,.5-.3,.9-.71,1.2-1.24,.31-.53,.53-1.15,.68-1.87,.14-.71,.22-1.5,.22-2.35Z"/>
    <path class="cls-1" d="M298.49,34.33c.85,0,1.65,.06,2.38,.19,.74,.13,1.41,.29,2.03,.48l-.51,2.6c-.64-.18-1.26-.3-1.84-.37-.59-.07-1.12-.11-1.6-.11-1.54,0-2.71,.48-3.52,1.43-.8,.96-1.2,2.41-1.2,4.35,0,.95,.08,1.78,.24,2.49,.16,.71,.43,1.31,.81,1.8,.38,.48,.87,.84,1.49,1.08s1.38,.36,2.28,.36c.19,0,.44-.01,.76-.04,.31-.03,.65-.06,1.01-.11,.36-.05,.72-.11,1.08-.17,.36-.06,.7-.14,1.02-.22l.58,2.46c-.35,.14-.74,.27-1.17,.37-.43,.11-.87,.2-1.33,.28-.46,.08-.92,.14-1.38,.18-.47,.04-.91,.06-1.33,.06-1.53,0-2.79-.22-3.79-.65-1-.43-1.81-1.03-2.41-1.79-.6-.76-1.02-1.65-1.27-2.68-.24-1.02-.36-2.12-.36-3.31,0-.96,.12-1.96,.36-2.99,.24-1.03,.66-1.96,1.27-2.81,.6-.84,1.42-1.54,2.46-2.08,1.03-.55,2.35-.82,3.94-.82Z"/>
    <path class="cls-1" d="M312.12,44.71l1.42-4,2.22-6.07h3.49l-5.66,14.26c-.39,.98-.87,1.67-1.46,2.07-.59,.4-1.32,.6-2.2,.6-.37,0-.82-.02-1.36-.07-.54-.05-1.2-.19-1.99-.41l.55-2.41c.47,.1,.85,.16,1.14,.2,.3,.04,.57,.06,.81,.06,.32,0,.6-.07,.82-.19,.22-.13,.42-.4,.58-.82l.39-1.01h-.89l-5.3-12.29h3.54l2.34,6.07,1.45,4h.12Z"/>
    <path class="cls-1" d="M320.58,51.22v4.24h-2.75v-6.67l1.59-.05c.53-.56,.96-1.21,1.29-1.95,.33-.74,.6-1.56,.8-2.46,.2-.9,.35-1.88,.46-2.94,.1-1.06,.2-2.19,.28-3.4l.24-3.35h10.7v14.09l1.71,.05v6.67h-2.75v-4.24h-11.56Zm4.82-12.53c-.1,1.28-.19,2.44-.29,3.45-.1,1.02-.23,1.93-.39,2.75-.16,.81-.37,1.53-.62,2.16-.26,.63-.6,1.19-1.01,1.68h6.58v-11.66h-4.14l-.12,1.62Z"/>
    <path class="cls-1" d="M347.73,51.22l-1.16-3.78h-6.05l-1.18,3.78h-3.54l5.64-16.55h4.48l5.47,16.55h-3.66Zm-3.11-10.55l-.96-3.59h-.12l-1.01,3.71-1.23,4.24h4.55l-1.23-4.36Z"/>
    <path class="cls-1" d="M365.31,39.73c0,.6-.1,1.2-.29,1.81-.19,.61-.51,1.16-.94,1.65-.43,.49-.99,.89-1.67,1.2-.68,.31-1.51,.47-2.49,.47h-3.01l.02,6.36h-3.59v-16.58h6.29c1.9,0,3.32,.46,4.26,1.37,.95,.92,1.42,2.15,1.42,3.71Zm-8.41-2.55v5.25h2.34c.32,0,.63-.04,.93-.13,.3-.09,.56-.24,.78-.44,.22-.21,.41-.48,.54-.81,.14-.34,.21-.74,.21-1.22,0-.94-.24-1.62-.73-2.03-.49-.41-1.1-.61-1.84-.61h-2.22Z"/>
    <path class="cls-1" d="M375.26,34.33c.85,0,1.65,.06,2.38,.19,.74,.13,1.41,.29,2.03,.48l-.51,2.6c-.64-.18-1.26-.3-1.84-.37-.59-.07-1.12-.11-1.6-.11-1.54,0-2.71,.48-3.52,1.43-.8,.96-1.2,2.41-1.2,4.35,0,.95,.08,1.78,.24,2.49,.16,.71,.43,1.31,.81,1.8,.38,.48,.87,.84,1.49,1.08s1.38,.36,2.28,.36c.19,0,.44-.01,.76-.04,.31-.03,.65-.06,1.01-.11,.36-.05,.72-.11,1.08-.17,.36-.06,.7-.14,1.02-.22l.58,2.46c-.35,.14-.74,.27-1.17,.37-.43,.11-.87,.2-1.33,.28-.46,.08-.92,.14-1.38,.18-.47,.04-.91,.06-1.33,.06-1.53,0-2.79-.22-3.79-.65-1-.43-1.81-1.03-2.41-1.79-.6-.76-1.02-1.65-1.27-2.68-.24-1.02-.36-2.12-.36-3.31,0-.96,.12-1.96,.36-2.99,.24-1.03,.66-1.96,1.27-2.81,.6-.84,1.42-1.54,2.46-2.08,1.03-.55,2.35-.82,3.94-.82Z"/>
    <path class="cls-1" d="M386.68,51.22v-14h-5.25v-2.58h14.02v2.58h-5.23l-.02,14h-3.52Z"/>
    <path class="cls-1" d="M407.74,42.59c.56,.19,1.01,.45,1.35,.77,.34,.32,.59,.66,.77,1.02,.18,.36,.29,.72,.35,1.08,.05,.36,.08,.67,.08,.93,0,.72-.13,1.38-.39,1.97-.26,.6-.61,1.1-1.07,1.53-.46,.42-1.01,.75-1.65,.98-.64,.22-1.35,.34-2.12,.34h-7.54v-16.55h7.23c1.72,0,3,.41,3.84,1.23,.84,.82,1.26,1.89,1.26,3.2,0,.26-.03,.54-.1,.86-.06,.31-.18,.62-.34,.93-.16,.31-.38,.6-.65,.88-.27,.28-.62,.52-1.04,.71v.12Zm-6.67-5.4v4.27h2.67c.82,0,1.44-.18,1.85-.53s.63-.86,.63-1.53-.19-1.21-.58-1.61c-.39-.4-1.02-.6-1.9-.6h-2.67Zm0,6.67v4.82h3.01c.93,0,1.6-.24,2-.71,.4-.47,.6-1.05,.6-1.74s-.21-1.21-.64-1.68c-.43-.46-1.08-.7-1.96-.7h-3.01Z"/>
    <path class="cls-1" d="M413.37,51.22v-16.58h11.42v2.53h-7.83v4.19h6.58v2.36h-6.58v4.96h8.17v2.53h-11.76Z"/>
    <path class="cls-1" d="M437.97,51.22v-7.37h-6.43c0,1.24,0,2.47,.01,3.7,0,1.23,.01,2.45,.01,3.67h-3.59v-16.55h3.59c0,1.11,0,2.21-.01,3.3,0,1.09-.01,2.19-.01,3.3h6.43v-6.6h3.59v16.55h-3.59Z"/>
    <path class="cls-1" d="M455.07,51.22v-7.37h-6.43c0,1.24,0,2.47,.01,3.7,0,1.23,.01,2.45,.01,3.67h-3.59v-16.55h3.59c0,1.11,0,2.21-.01,3.3,0,1.09-.01,2.19-.01,3.3h6.43v-6.6h3.59v16.55h-3.59Z"/>
    <path class="cls-1" d="M462.2,34.64h3.54l.02,6.48h3.49c.85,0,1.63,.11,2.35,.34,.71,.23,1.33,.55,1.84,.98,.52,.43,.91,.95,1.19,1.58,.28,.63,.42,1.34,.42,2.14s-.13,1.52-.38,2.14c-.26,.63-.62,1.16-1.1,1.59-.47,.43-1.04,.76-1.7,.99-.66,.22-1.39,.34-2.19,.34h-7.49v-16.58Zm3.56,8.89v5.25h3.04c.69,0,1.29-.22,1.8-.65,.51-.43,.76-1.1,.76-2,0-.45-.08-.84-.23-1.17-.15-.33-.36-.6-.61-.81-.26-.21-.55-.37-.87-.47-.32-.11-.66-.16-1.01-.16h-2.87Zm11.18,7.69v-16.58h3.52v16.58h-3.52Z"/>
    <path class="cls-1" d="M494.51,34.67h1.72c.57,0,1.14,0,1.7,.03v16.53h-3.45v-11.28h-.1c-.79,1.27-1.57,2.54-2.34,3.81-.77,1.27-1.54,2.54-2.31,3.81l-2.29,3.66h-3.52v-16.53h3.52c0,1.91,0,3.82-.01,5.72,0,1.9-.01,3.81-.01,5.72h.1l1.98-3.2c.34-.59,.74-1.28,1.22-2.05,.47-.77,.95-1.54,1.43-2.32,.48-.78,.94-1.51,1.36-2.21,.42-.69,.76-1.25,1-1.69Zm-3.81-1.45c-.48,0-.94-.09-1.36-.26-.42-.18-.82-.41-1.19-.71-.37-.3-.71-.63-1.04-1.01-.32-.38-.62-.77-.89-1.19l1.45-1.08c.52,.69,1.05,1.2,1.61,1.54,.56,.34,1.06,.51,1.49,.51,.15,0,.33,0,.54-.03,.22-.02,.47-.08,.76-.21,.29-.12,.63-.3,1.01-.55,.39-.25,.83-.62,1.35-1.1l1.03,.94c-.38,.6-.78,1.09-1.19,1.49-.41,.4-.82,.73-1.23,.98-.41,.25-.81,.43-1.22,.53-.4,.1-.78,.16-1.13,.16Z"/>
    <path class="cls-1" d="M122.79,68.95l-1.2,3.06c-.21,.46-.44,.99-.69,1.56-.25,.58-.5,1.16-.75,1.75-.25,.59-.49,1.17-.73,1.75-.24,.58-.47,1.1-.67,1.57h-2.92c-.21-.48-.43-1.02-.67-1.61-.24-.6-.49-1.19-.73-1.8s-.5-1.2-.75-1.78c-.25-.58-.49-1.12-.71-1.6l-1.06-2.77h-.07v2.58c0,.96,0,1.95-.01,2.95,0,1-.01,1.99-.01,2.95v2.58h-3.42v-16.55h4.38l2.17,5.37c.16,.42,.34,.88,.54,1.39,.2,.51,.41,1.03,.61,1.57,.21,.54,.41,1.06,.6,1.58,.19,.52,.38,.97,.55,1.37h.19c.39-.93,.78-1.9,1.18-2.91s.8-1.99,1.18-2.94c.16-.34,.34-.75,.54-1.23,.2-.48,.4-.98,.6-1.48,.2-.51,.4-1,.6-1.48,.2-.48,.38-.89,.54-1.23h4.23v16.55h-3.45v-11.18h-.07Z"/>
    <path class="cls-1" d="M129.83,80.13v-16.57h11.42v2.53h-7.83v4.19h6.58v2.36h-6.58v4.96h8.17v2.53h-11.76Z"/>
    <path class="cls-1" d="M145.8,80.13v4.24h-2.75v-6.67l1.59-.05c.53-.56,.96-1.21,1.29-1.95,.33-.74,.6-1.56,.8-2.46,.2-.9,.35-1.88,.46-2.94,.1-1.06,.2-2.19,.28-3.4l.24-3.35h10.7v14.09l1.71,.05v6.67h-2.75v-4.24h-11.56Zm4.82-12.53c-.1,1.28-.19,2.44-.29,3.46-.1,1.02-.23,1.94-.39,2.75-.16,.81-.37,1.53-.62,2.16-.26,.63-.6,1.19-1.01,1.69h6.58v-11.66h-4.14l-.12,1.61Z"/>
    <path class="cls-1" d="M173.14,63.58h1.72c.57,0,1.14,0,1.7,.02v16.53h-3.44v-11.27h-.1c-.79,1.27-1.57,2.54-2.34,3.81-.77,1.27-1.54,2.54-2.31,3.81l-2.29,3.66h-3.52v-16.53h3.52c0,1.91,0,3.82-.01,5.72,0,1.9-.01,3.81-.01,5.72h.1l1.98-3.2c.34-.59,.74-1.28,1.22-2.05,.47-.77,.95-1.55,1.43-2.32,.48-.78,.94-1.51,1.36-2.21,.43-.69,.76-1.25,1-1.68Z"/>
    <path class="cls-1" d="M193.19,80.13h-13.06v-16.55h3.54v14.07h6.46v-14.07h3.59v14.07h2.12v6.7h-2.65v-4.21Z"/>
    <path class="cls-1" d="M208.87,63.58h1.72c.57,0,1.14,0,1.7,.02v16.53h-3.44v-11.27h-.1c-.79,1.27-1.57,2.54-2.34,3.81-.77,1.27-1.54,2.54-2.31,3.81l-2.29,3.66h-3.52v-16.53h3.52c0,1.91,0,3.82-.01,5.72,0,1.9-.01,3.81-.01,5.72h.1l1.98-3.2c.34-.59,.74-1.28,1.22-2.05,.47-.77,.95-1.55,1.43-2.32s.94-1.51,1.36-2.21c.42-.69,.76-1.25,1-1.68Z"/>
    <path class="cls-1" d="M225.83,80.13v-7.37h-6.43c0,1.24,0,2.47,.01,3.7,0,1.23,.01,2.45,.01,3.67h-3.59v-16.55h3.59c0,1.11,0,2.21-.01,3.3,0,1.09-.01,2.19-.01,3.3h6.43v-6.6h3.59v16.55h-3.59Z"/>
    <path class="cls-1" d="M240.48,63.24c.85,0,1.65,.06,2.38,.19,.74,.13,1.41,.29,2.03,.48l-.51,2.6c-.64-.18-1.26-.3-1.84-.37-.59-.07-1.12-.11-1.6-.11-1.54,0-2.71,.48-3.52,1.43-.8,.96-1.2,2.41-1.2,4.35,0,.95,.08,1.78,.24,2.5,.16,.71,.43,1.31,.81,1.79,.38,.48,.87,.84,1.49,1.09,.62,.24,1.38,.36,2.28,.36,.19,0,.44-.01,.76-.04,.31-.03,.65-.06,1.01-.11,.36-.05,.72-.1,1.08-.17,.36-.06,.7-.14,1.02-.22l.58,2.46c-.35,.14-.74,.27-1.17,.37-.43,.11-.87,.2-1.33,.28s-.92,.14-1.38,.18c-.47,.04-.91,.06-1.33,.06-1.53,0-2.79-.22-3.79-.65-1-.43-1.81-1.03-2.41-1.8-.6-.76-1.02-1.65-1.27-2.67-.24-1.02-.36-2.12-.36-3.31,0-.96,.12-1.96,.36-2.99,.24-1.03,.66-1.96,1.27-2.8,.6-.84,1.42-1.54,2.46-2.08,1.03-.55,2.35-.82,3.94-.82Z"/>
    <path class="cls-1" d="M257.48,71.41c.4,.09,.75,.25,1.04,.46,.29,.21,.53,.44,.73,.71,.2,.26,.36,.55,.48,.87,.12,.31,.23,.63,.33,.95l1.54,5.73h-3.57l-1.4-5.08c-.21-.75-.53-1.33-.95-1.72-.42-.39-1.06-.59-1.92-.59h-2.24v7.4h-3.49v-16.53h3.49v6.5h2.05c.26,0,.52-.03,.8-.08,.27-.05,.53-.16,.77-.33,.24-.16,.46-.39,.66-.69,.2-.3,.37-.69,.5-1.17l1.11-4.22h3.42l-1.2,4.75c-.18,.67-.44,1.27-.81,1.79-.36,.52-.8,.9-1.31,1.12l-.03,.12Z"/>
    <path class="cls-1" d="M274.39,63.58h1.72c.57,0,1.14,0,1.7,.02v16.53h-3.45v-11.27h-.1c-.79,1.27-1.57,2.54-2.34,3.81-.77,1.27-1.54,2.54-2.31,3.81l-2.29,3.66h-3.52v-16.53h3.52c0,1.91,0,3.82-.01,5.72,0,1.9-.01,3.81-.01,5.72h.1l1.98-3.2c.34-.59,.74-1.28,1.22-2.05,.47-.77,.95-1.55,1.43-2.32,.48-.78,.94-1.51,1.36-2.21,.42-.69,.76-1.25,1-1.68Z"/>
    <path class="cls-1" d="M291.93,63.58h1.72c.57,0,1.14,0,1.7,.02v16.53h-3.45v-11.27h-.1c-.79,1.27-1.57,2.54-2.34,3.81-.77,1.27-1.54,2.54-2.31,3.81l-2.29,3.66h-3.52v-16.53h3.52c0,1.91,0,3.82-.01,5.72,0,1.9-.01,3.81-.01,5.72h.1l1.98-3.2c.34-.59,.74-1.28,1.22-2.05,.47-.77,.95-1.55,1.43-2.32,.48-.78,.94-1.51,1.36-2.21,.42-.69,.76-1.25,1-1.68Zm-3.81-1.45c-.48,0-.94-.09-1.36-.27-.42-.18-.82-.41-1.19-.71-.37-.3-.71-.63-1.04-1.01-.32-.38-.62-.77-.89-1.19l1.45-1.08c.52,.69,1.05,1.21,1.61,1.54,.56,.34,1.06,.51,1.49,.51,.15,0,.33,0,.54-.02,.22-.02,.47-.09,.76-.21,.29-.12,.63-.3,1.01-.55,.39-.25,.83-.61,1.35-1.1l1.03,.94c-.38,.6-.78,1.09-1.19,1.49s-.82,.73-1.23,.98c-.41,.25-.81,.42-1.22,.53-.4,.1-.78,.16-1.13,.16Z"/>
    <path class="cls-1" d="M312.05,73.62l1.42-4,2.22-6.07h3.49l-5.66,14.26c-.39,.98-.87,1.67-1.46,2.07-.59,.4-1.32,.6-2.2,.6-.37,0-.82-.02-1.36-.07-.54-.05-1.2-.19-1.99-.41l.55-2.41c.47,.1,.85,.16,1.14,.21,.3,.04,.57,.06,.81,.06,.32,0,.6-.06,.82-.19,.22-.13,.42-.4,.58-.82l.39-1.01h-.89l-5.3-12.28h3.54l2.34,6.07,1.45,4h.12Z"/>
    <path class="cls-1" d="M331.3,80.13v-7.37h-6.43c0,1.24,0,2.47,.01,3.7,0,1.23,.01,2.45,.01,3.67h-3.59v-16.55h3.59c0,1.11,0,2.21-.01,3.3,0,1.09-.01,2.19-.01,3.3h6.43v-6.6h3.59v16.55h-3.59Z"/>
    <path class="cls-1" d="M348.98,63.58h1.72c.57,0,1.14,0,1.7,.02v16.53h-3.44v-11.27h-.1c-.79,1.27-1.57,2.54-2.34,3.81-.77,1.27-1.54,2.54-2.31,3.81l-2.29,3.66h-3.52v-16.53h3.52c0,1.91,0,3.82-.01,5.72,0,1.9-.01,3.81-.01,5.72h.1l1.98-3.2c.34-.59,.74-1.28,1.22-2.05,.47-.77,.95-1.55,1.43-2.32,.48-.78,.94-1.51,1.36-2.21,.42-.69,.76-1.25,1-1.68Z"/>
    <path class="cls-1" d="M366.16,71.5c.56,.19,1.01,.45,1.35,.77,.34,.32,.59,.66,.77,1.02,.18,.36,.29,.72,.35,1.08,.05,.36,.08,.67,.08,.93,0,.72-.13,1.38-.39,1.97-.26,.6-.62,1.1-1.07,1.53-.46,.42-1.01,.75-1.65,.98-.64,.22-1.35,.34-2.12,.34h-7.54v-16.55h7.23c1.72,0,3,.41,3.84,1.23,.84,.82,1.26,1.89,1.26,3.2,0,.26-.03,.54-.1,.86-.06,.31-.18,.62-.34,.93-.16,.31-.38,.6-.65,.88-.27,.28-.62,.52-1.04,.71v.12Zm-6.67-5.4v4.26h2.67c.82,0,1.44-.17,1.85-.53,.42-.35,.63-.86,.63-1.54s-.19-1.2-.58-1.6c-.39-.4-1.02-.6-1.9-.6h-2.67Zm0,6.67v4.82h3.01c.93,0,1.6-.24,2-.71,.4-.47,.6-1.05,.6-1.74s-.21-1.21-.64-1.68c-.43-.46-1.08-.7-1.96-.7h-3.01Z"/>
    <path class="cls-1" d="M371.79,80.13v-16.57h11.42v2.53h-7.83v4.19h6.58v2.36h-6.58v4.96h8.17v2.53h-11.76Z"/>
    <path class="cls-1" d="M398.37,68.63c0,.6-.1,1.2-.29,1.81-.19,.61-.51,1.16-.94,1.65-.43,.49-.99,.89-1.67,1.2-.68,.31-1.51,.47-2.49,.47h-3.01l.02,6.36h-3.59v-16.57h6.29c1.9,0,3.32,.46,4.26,1.37,.95,.92,1.42,2.15,1.42,3.71Zm-8.41-2.55v5.25h2.34c.32,0,.63-.04,.93-.13,.3-.09,.56-.24,.78-.44,.22-.21,.41-.48,.54-.81,.14-.33,.21-.74,.21-1.22,0-.94-.24-1.62-.73-2.03-.49-.41-1.1-.61-1.84-.61h-2.22Z"/>
    <path class="cls-1" d="M408.32,63.24c.85,0,1.65,.06,2.38,.19,.74,.13,1.41,.29,2.03,.48l-.51,2.6c-.64-.18-1.26-.3-1.84-.37-.59-.07-1.12-.11-1.6-.11-1.54,0-2.71,.48-3.52,1.43-.8,.96-1.2,2.41-1.2,4.35,0,.95,.08,1.78,.24,2.5,.16,.71,.43,1.31,.81,1.79,.38,.48,.87,.84,1.49,1.09,.62,.24,1.38,.36,2.28,.36,.19,0,.44-.01,.76-.04,.31-.03,.65-.06,1.01-.11,.36-.05,.72-.1,1.08-.17,.36-.06,.7-.14,1.02-.22l.58,2.46c-.35,.14-.74,.27-1.17,.37-.43,.11-.87,.2-1.33,.28s-.92,.14-1.38,.18c-.47,.04-.91,.06-1.33,.06-1.53,0-2.79-.22-3.79-.65-1-.43-1.81-1.03-2.41-1.8-.6-.76-1.02-1.65-1.27-2.67-.24-1.02-.36-2.12-.36-3.31,0-.96,.12-1.96,.36-2.99,.24-1.03,.66-1.96,1.27-2.8,.6-.84,1.42-1.54,2.46-2.08,1.03-.55,2.35-.82,3.94-.82Z"/>
    <path class="cls-1" d="M426.45,63.58h1.72c.57,0,1.14,0,1.7,.02v16.53h-3.45v-11.27h-.1c-.79,1.27-1.57,2.54-2.34,3.81-.77,1.27-1.54,2.54-2.31,3.81l-2.29,3.66h-3.52v-16.53h3.52c0,1.91,0,3.82-.01,5.72,0,1.9-.01,3.81-.01,5.72h.1l1.98-3.2c.34-.59,.74-1.28,1.22-2.05,.47-.77,.95-1.55,1.43-2.32s.94-1.51,1.36-2.21c.42-.69,.76-1.25,1-1.68Z"/>
    <path class="cls-1" d="M437.27,80.13v-14h-5.25v-2.58h14.02v2.58h-5.23l-.02,14h-3.52Z"/>
    <path class="cls-1" d="M448.11,80.13v-16.57h11.42v2.53h-7.83v4.19h6.58v2.36h-6.58v4.96h8.17v2.53h-11.76Z"/>
    <path class="cls-1" d="M466.57,80.13v-14h-5.25v-2.58h14.02v2.58h-5.23l-.02,14h-3.52Z"/>
  </g>
  <g>
    <g>
      <path class="cls-1" d="M33.34,105.14c-.16-.06-.3-.09-.43-.06-.13,.02-.24,.08-.35,.17-.1,.09-.19,.21-.28,.35-.09,.14-.16,.29-.23,.45-.08,.19-.15,.37-.18,.53-.04,.16-.05,.31-.03,.43,.02,.13,.06,.24,.14,.34,.08,.1,.19,.18,.34,.24,.14,.06,.27,.08,.39,.06,.12-.02,.24-.07,.33-.15,.11-.08,.21-.19,.29-.33s.17-.3,.24-.48c.07-.17,.13-.33,.17-.49,.04-.16,.05-.31,.05-.44,0-.14-.05-.26-.12-.36-.07-.11-.18-.19-.33-.26Z"/>
      <path class="cls-1" d="M37.39,106.63l-.45-.13-.27,.96,.46,.13c.06,.02,.12,.03,.19,.02,.06,0,.13-.02,.18-.04,.05-.03,.1-.07,.15-.12,.04-.05,.08-.13,.1-.21,.04-.15,.03-.28-.04-.38-.06-.11-.17-.18-.32-.22Z"/>
      <path class="cls-1" d="M72.42,91.58c-7.19,6.25-14.34,10.66-25.96,10.66s-18.87-4.44-26.06-10.74c-.66-.26-1.16,.46-1.71,3.72-.2,1.19-1.58,5.44,.09,7.73,7.62,8.07,16.41,12.69,27.68,12.69s20.3-4.75,27.94-12.99c1.33-2.17,.09-6.25-.1-7.43-.6-3.54-1.13-4.09-1.88-3.64Zm-51.21,9.81l2.72-3.18,2.39,2.04-.53,.62-1.47-1.26-.52,.6,1.23,1.05-.52,.61-1.23-1.05-.62,.72,1.53,1.31-.54,.63-2.44-2.09Zm6.51,2.27c-.01,.42-.02,.85-.02,1.28,0,.43,0,.86,0,1.28l-1.13-.75,.12-1.6-1.41,.74-1.14-.75c.4-.17,.8-.34,1.19-.51,.4-.17,.8-.34,1.2-.52v-2.4s1.16,.76,1.16,.76l-.14,1.46c.21-.1,.43-.22,.66-.34,.22-.12,.44-.24,.65-.34l1.13,.75-2.25,.93Zm6.57,4.26c-.18,.21-.39,.37-.63,.48-.23,.11-.49,.17-.78,.17s-.59-.07-.9-.2c-.33-.14-.59-.31-.79-.5-.2-.2-.35-.42-.43-.66-.09-.24-.12-.51-.09-.78,.03-.28,.1-.56,.22-.86,.12-.28,.27-.53,.45-.74,.18-.21,.38-.37,.62-.48,.24-.11,.5-.17,.78-.17,.29,0,.6,.07,.93,.21,.33,.14,.6,.31,.8,.51,.2,.21,.34,.43,.42,.67,.09,.25,.11,.51,.09,.78-.03,.27-.1,.55-.22,.83-.12,.29-.27,.53-.46,.74Zm4.63-.44c-.03,.11-.07,.21-.13,.3-.05,.1-.12,.18-.2,.26-.08,.07-.17,.13-.27,.18-.11,.05-.22,.08-.35,.1h0c.08,.07,.14,.13,.19,.19s.09,.14,.11,.21c.03,.07,.04,.15,.05,.23,0,.08,.01,.16,.01,.24v1.18s-1.13-.32-1.13-.32v-1.1c-.01-.21-.05-.37-.13-.46-.07-.1-.19-.17-.35-.21l-.27-.07-.42,1.52-1.15-.32,1.12-4.03,1.84,.51c.25,.07,.46,.16,.62,.28,.16,.12,.28,.25,.36,.39,.08,.14,.13,.29,.14,.45,.01,.16,0,.32-.05,.46Zm1.44,3.26l-1.17-.22,.77-4.11,1.17,.22-.77,4.11Zm4.52-2.84l-1.92-.2-.08,.79,1.61,.17-.08,.8-1.61-.17-.1,.94,2,.21-.09,.82-3.2-.33,.43-4.16,3.13,.32-.09,.81Zm3.47,3.39c-.22-.33-.44-.66-.64-.99-.21-.33-.42-.66-.65-.99-.06-.09-.11-.18-.17-.27-.06-.09-.11-.18-.16-.27,0,0-.02,0-.02,0,0,0-.01,0-.02,0l.04,2.54h-1.15s-.06-4.16-.06-4.16l1.21-.02c.22,.31,.42,.61,.62,.92,.2,.3,.4,.61,.61,.92l.38,.6h.04l-.04-2.46,1.16-.02,.06,4.17-1.21,.02Zm4.44-.39l-1.18,.15-.42-3.32-1.3,.17-.11-.82,3.78-.48,.11,.82-1.3,.16,.42,3.33Zm2.02-.32l-.97-4.07,3.05-.73,.19,.79-1.88,.45,.18,.77,1.57-.37,.18,.78-1.57,.38,.22,.92,1.95-.47,.19,.81-3.13,.75Zm5.93-1.67l-1.6-3.86,1.1-.46,1.29,3.11,1.9-.79,.32,.75-3,1.25Zm6.38-3.5c-.07,.2-.19,.38-.35,.56-.17,.18-.39,.35-.68,.5-.3,.17-.56,.28-.81,.33-.24,.05-.46,.05-.66,0-.2-.05-.37-.15-.53-.29-.16-.14-.3-.32-.42-.55l-1.28-2.28,1.02-.58,1.31,2.33c.13,.23,.28,.37,.43,.41,.16,.04,.34,0,.55-.11,.08-.05,.16-.1,.21-.17,.06-.06,.1-.14,.13-.22,.02-.08,.03-.17,.01-.27-.02-.1-.06-.21-.12-.33l-1.31-2.33,1.01-.57,1.28,2.28c.13,.23,.21,.44,.24,.65,.04,.21,.03,.42-.04,.61Zm3.55-2.05l-1.47-.65,.23,1.58-1.09,.81c-.03-.43-.05-.87-.07-1.29-.03-.43-.05-.86-.08-1.3l-2.25-.82,1.1-.82,1.33,.62c-.03-.23-.07-.48-.1-.73-.04-.25-.07-.5-.1-.73l1.08-.81,.12,2.44c.4,.15,.8,.3,1.2,.45,.41,.15,.81,.3,1.21,.44l-1.08,.81Z"/>
      <path class="cls-1" d="M42.62,95.28c.03,.07,.08,.13,.14,.17,.06,.04,.14,.07,.24,.07,.09,0,.17,0,.24-.04,.06-.03,.12-.08,.16-.15,.04-.07,.08-.15,.1-.25,.03-.1,.04-.21,.05-.32,0-.11,0-.21,0-.31,0-.1-.03-.19-.05-.26-.03-.08-.07-.14-.14-.19-.06-.05-.14-.08-.24-.09-.1,0-.19,.01-.26,.05-.07,.04-.12,.09-.17,.17-.05,.07-.07,.16-.1,.25-.02,.1-.04,.2-.05,.3-.01,.13-.01,.24,0,.34,0,.1,.03,.19,.06,.26Z"/>
      <path class="cls-1" d="M35.22,95.09c3.09,1.99,4.54,2.8,11.27,2.8s8.18-.81,11.27-2.8c.68-.57,.3-3.34,.3-3.64,0-1.48,.49-2.04,.22-1.98-1.78,1.99-7.09,2.07-11.6,2.07h-.1s-.07,0-.1,0c-.03,0-.06,0-.09,0h0s-.07,0-.1,0c-4.51,0-9.81-.08-11.6-2.07-.27-.06,.22,.49,.22,1.98,0,.3-.38,3.08,.3,3.64Zm16.6-1.84l.15,.94,.21-.03s.08-.02,.11-.03c.04-.01,.07-.04,.1-.06,.03-.03,.05-.06,.08-.11,.02-.05,.03-.1,.04-.16l.07-.66,.7-.11-.09,.77c-.02,.1-.04,.19-.09,.27-.05,.09-.1,.15-.18,.2v.02c.08,0,.13,.03,.17,.05,.05,.03,.09,.05,.13,.09,.03,.03,.06,.07,.08,.11,.03,.04,.05,.09,.07,.13l.37,.82-.72,.11-.32-.71c-.04-.1-.1-.17-.17-.21-.07-.04-.15-.05-.26-.03l-.24,.03,.16,1.05-.71,.11-.38-2.49,.7-.11Zm-3.19,1.11c.03-.16,.09-.31,.18-.44,.09-.14,.22-.25,.38-.34,.16-.09,.38-.15,.63-.17,.12-.01,.24,0,.36,0,.11,0,.23,.03,.34,.05l-.05,.52c-.1-.02-.19-.02-.27-.03-.09,0-.17,0-.24,0-.1,0-.19,.03-.26,.06-.07,.03-.14,.08-.19,.14-.05,.06-.09,.14-.11,.24-.03,.1-.03,.21-.02,.34,0,.15,.03,.26,.07,.36,.03,.09,.08,.17,.14,.22,.06,.05,.13,.09,.22,.11,.09,.02,.19,.02,.3,.02,.03,0,.07,0,.11-.01,.04,0,.09-.02,.15-.03,.05-.01,.11-.03,.16-.04,.06-.01,.11-.02,.15-.04l.15,.49c-.12,.06-.25,.1-.41,.14-.15,.04-.3,.06-.44,.07-.25,.02-.47,0-.64-.06-.16-.06-.3-.14-.41-.25-.1-.11-.18-.24-.23-.39-.05-.15-.07-.31-.09-.49-.01-.16,0-.32,.02-.48Zm-3.64-.77h.91s.34,.91,.34,.91l.2,.58h.03l.24-.62,.35-.87h.89s-.01,2.53-.01,2.53h-.7s0-1.49,0-1.49h-.01l-.23,.58-.27,.64h-.57s-.26-.68-.26-.68l-.21-.55h-.02v1.49s-.7,0-.7,0v-2.53Zm-3.18,1.04c.01-.18,.05-.36,.11-.51,.06-.16,.15-.29,.26-.4,.12-.11,.25-.19,.42-.24,.16-.06,.35-.08,.57-.06,.22,.02,.41,.06,.56,.14,.15,.08,.28,.18,.37,.31,.1,.13,.16,.27,.2,.43,.04,.16,.05,.34,.04,.52-.02,.19-.06,.36-.12,.51-.06,.16-.15,.29-.27,.4-.11,.11-.25,.19-.42,.24-.16,.05-.35,.07-.55,.06-.22-.02-.4-.06-.55-.14-.15-.07-.28-.17-.37-.3-.1-.12-.17-.27-.21-.43-.03-.16-.05-.34-.03-.53Zm-2.38-1.59l2.28,.31-.07,.49-.78-.11-.28,2.01-.71-.1,.27-2.01-.78-.11,.06-.5Z"/>
      <path class="cls-1" d="M17.42,82.19c.09-.36,.4-.33,.55-.13,.14,.21,.38,.39,.7,.43,.32,.04,.58-.04,.42-.42-.15-.38,.31-.48,.48-.27,.17,.22,.33,.37,.75,.32,.42-.05,.44-.53,.32-.87-.12-.34,.15-.43,.35-.28,.21,.15,.58,.33,.72,.08,.14-.24-.08-.53-.13-.68,0-.02-.02-.03-.02-.04-.41-.3-1.63-.22-2.64-.18-.2,0-.41,.04-.61,.1-.14-.34,.12-.61,.46-.62,.41,0,.86-.17,1.19-.57,.33-.4,.46-.83-.18-.95-.65-.13-.38-.84,.06-.88,.44-.04,.78-.11,1.09-.72,.31-.61-.32-1.06-.87-1.2-.56-.14-.45-.58-.07-.73,.39-.14,.95-.48,.75-.88-.2-.38-.74-.36-.99-.42,.01,0,.02,0,.04-.01-.03-.05-.07-.13-.14-.22-.36-.51-.63,.05-1.01,.11-.38,.06-.31-.54-.95-.32-.64,.22-.44,1.08-.52,1.57-.08,.49-.8,.32-.82,.17-.02-.15,0-.69-.63-.24,.31,1.33,.55,2.77,.76,4.36,.09,.62-.19,2.02,0,3.24,.01,.04,.01,.07,.02,.1,.11,.11,.25,.22,.38,.29,.33,.18,.45,.22,.54-.14Zm-.34-2c.1-.37,.35-.98,.29-1.51-.08-.66-.18-1.48-.04-2.62,.12-.97,.56-1.6,1.07-2.03-.4,.4-.73,.96-.83,1.78-.13,1.1,0,1.88,.07,2.52,.07,.56,.02,1.09-.1,1.53-.1,.35-.25,.71-.41,1.06-.09,.12-.27,.19-.45,.29,.15-.34,.3-.68,.39-1.02Z"/>
      <path class="cls-1" d="M10.41,80.73c-4.5-.74-4.38-1.28-3.59-1.95,.17-.15,1.6-1.37,2.67-1.95,.51-.27-2.42,.63-3.27,1.2-.85,.56-1.91,2.33,.14,3.27,2.04,.94,.25,4.87,1.96,6.38,1.71,1.5,4.21-1.58,7.66-.62,.24,.07-.35-2.88,.05-4.62,.26-1.11-2.74-1.23-5.62-1.7Z"/>
      <path class="cls-1" d="M16.46,64.42c.43-.07,.77-.19,1.06-.82,.3-.67-.4-1.13-1.01-1.25-.14-.03-.24-.08-.31-.14-.08,.04-.17,.09-.17,.09l.15,.1,.06,.06c.35,.33,.52,.76,.47,1.22-.03,.25-.12,.51-.26,.74Z"/>
      <path class="cls-1" d="M17.52,68.46c.37-.12,.65-.24,.81-.82,.16-.59-.47-.86-.97-.89-.51-.02-.49-.42-.19-.61,.3-.2,.73-.59,.48-.9-.24-.3-.7-.18-.93-.19,.01,0,.02-.01,.03-.02-.04-.04-.08-.1-.16-.16-.19-.18-.32-.15-.44-.07-.2,.22-.46,.42-.77,.61-.68,.41-1.2,.82-1.41,1.08l-.94,1.22c.72,1.09,1.3,2.24,1.77,3.51,.03,.1,.07,.2,.1,.3,.16,.46,.31,.93,.45,1.42,.39-.2,1.03-.47,1.45-.64,.48-.2,.52-.48,.09-.79-.43-.31-.23-.71,.12-.79,.35-.08,.71-.31,.93-.71,.22-.4,.24-.8-.33-.79-.58,0-.47-.66-.1-.77Z"/>
      <path class="cls-1" d="M11.8,43.46c-.57,.09-.64-.36-.35-.65,.31-.28,.7-.82,.35-1.11-.33-.28-.83-.05-1.08,0,0,0,.02-.02,.03-.03-.05-.04-.11-.09-.22-.16-.53-.33-.57,.3-.89,.5-.34,.2-.51-.38-1.02,.07-.51,.45,.01,1.19,.13,1.67,.12,.48-.61,.61-.7,.48-.08-.14-.29-.68-.72,.08-.44,.76,.47,1.51,1.07,2.02,.6,.52,.11,.63-.31,.43-.41-.2-.86-.26-.85,.41,.01,.66,.47,.84,.98,.97,.52,.13,1,.13,1.1,.7,.1,.57-.33,.08-.59,.48-.23,.34,.03,.7,.54,.94-.03,.17-.04,.36-.13,.52-.21,.33-.62-.12-.89,.51-.48-.47-.97-.95-1.39-1.39-.43-.45-.34,2.09-.27,3.59,.03,.74,.76,.92,1.46,1.28,0-.27,.09-.53,.25-.77,.47-.65,1.23-.71,1.7-.71,.06-.1,.15-.19,.25-.3,.49-.51,1.11-.62,1.66-.3,.16,.09,.28,.2,.38,.3,.31-.2,.85-.43,1.67,0,.86,.49,.91,1.37,.85,2.03,.01,0,.02,0,.03-.01,.2-.08,.6-.18,1.09,.1,.17,.1,.36,.25,.55,.45,.12,.12,.21,.25,.29,.38,0-.05,0-.09,0-.14,.11-.14,.23-.36-.11-.49-.08-.61,.45-.84,.9-.64,.5,.22,1.14,.28,1.76-.02,.62-.29,1.02-.74,.31-1.26-.71-.52,.02-1.23,.58-1.03,.56,.2,1.01,.31,1.73-.26,.72-.57,.21-1.47-.38-1.95-.6-.49-.22-.96,.33-.92,.55,.05,1.42-.05,1.4-.65-.02-.58-.68-.85-.95-1.07,.02,0,.04,0,.05,0,0-.08-.01-.2-.04-.34-.15-.82-.79-.3-1.29-.44-.49-.14-.07-.83-.97-.93-.9-.1-1.15,1.06-1.53,1.61-.38,.54-1.15-.07-1.09-.26,.07-.2,.41-.88-.71-.64-1.13,.25-1.07,1.8-1.04,2.84,.03,1.05-.52,.68-.69,.08-.17-.59-.51-1.08-1.15-.47-.64,.6-.41,1.21-.08,1.83,.33,.61,.75,1.1,.28,1.71-.41,.53-.39-.05-.79-.15,.17-.29,.24-.59,.02-1.11-.27-.65-1.04-.46-1.52-.13-.49,.34-.76-.04-.61-.44,0-.02,.02-.05,.03-.07,.39-.28,.88-.61,1.21-.82,.51-.33,.49-.66-.06-.91-.55-.25-.42-.74-.04-.91,.37-.17,.73-.5,.88-.99,.15-.5,.1-.95-.55-.81-.65,.14-.67-.63-.29-.84,.4-.21,.68-.41,.73-1.1,.05-.69-.72-.86-1.29-.78Z"/>
      <path class="cls-1" d="M19.48,58.69c.41,.18,1.1,.34,1.24-.12,.14-.44-.29-.83-.44-1.07,.02,0,.03,.01,.04,.02,.02-.06,.05-.15,.06-.27,.11-.66-.52-.43-.86-.68-.33-.24,.17-.65-.49-.97-.66-.31-1.16,.5-1.59,.82-.17,.13-.33,.09-.47,0,.18,.66-.04,1.36-.36,1.97,.16,.03,.29,.09,.4,.15,.36,.21,.6,.57,.71,1.09,.11,.48,.07,.88-.06,1.2,.27,.16,.58,.23,1.09,.05,.7-.24,.55-1.06,.23-1.59-.33-.53,.09-.79,.49-.61Z"/>
      <path class="cls-1" d="M13.23,65.43c.07,.22,.08,.39,.08,.55,.34-.44,1.06-.94,1.64-1.29,.82-.5,1.2-1.18,.73-1.62-.47-.43-.87,.34-.91-.43-.05-.77,.57-.93,1.19-1.26,.62-.33,1.15-.7,.95-1.56-.19-.86-.75-.65-1.22-.25-.47,.39-1.13,.4-.53-.46,.61-.85,1.52-2.11,.72-2.94-.8-.83-.9-.08-.95,.12-.06,.2-1.04,.27-1.05-.39,0-.66,.43-1.77-.37-2.19-.79-.42-.83,.39-1.33,.23-.49-.16-.73-.96-1.32-.35-.11,.11-.18,.2-.23,.27,1.03,.55,2.78,1.7,2.69,4.21-.06,1.54-.36,2.6-.6,3.46-.2,.68,0,1.55,.06,2.06,.07,.6,.25,1.23,.43,1.85Z"/>
      <path class="cls-1" d="M12.86,57.87c.08-2.2-1.28-3.27-2.23-3.81-.02,0-.14,.09-.18,.09-.32,.04-1.1-.13-1.45,.36-.34,.49,.33,1.05,.81,1.32,.48,.27,.52,.87-.24,.94-.76,.08-1.69,.54-1.41,1.41,.27,.88,.71,1.04,1.28,1.19,.57,.14,.78,1.14-.1,1.17-.88,.03-.8,.63-.44,1.22,.35,.59,.92,.9,1.46,1,.54,.09,.87,.69,.24,1.18-.63,.5-.54,.93,.21,1.19,.76,.26,1.46,.39,1.69,.72,.03,.04,.07,.09,.11,.13-.06-.24-.14-.48-.21-.73-.19-.63-.38-1.3-.45-1.93-.07-.61-.03-1.31,.19-2.04,.23-.83,.67-1.93,.72-3.41Z"/>
      <path class="cls-1" d="M23.44,89.23c.42-.64,1.43-3.37,2.93-2.51,.14,.09,.26,.25,.36,.44,.29,1.42-3.1,1.31-1.51,3,.23,.24,1.8,.96,2.29,1.28,.24-.92,.24-2.95-.33-4.87-.13-.45-.37-.68-.69-.8-2.1-1.83-8.43,.18-9.53-.91-.37-.36-.42,2.49,1.04,4.72,1.12-.42,5.24-.03,5.44-.35Z"/>
      <path class="cls-1" d="M6.97,71.1c1.03-.12,.72,.46,.14,.68-.57,.23-1.03,.61-.37,1.19,.66,.58,1.24,.3,1.84-.09,.58-.38,1.02-.84,1.67-.43,.65,.4-.22,.39-.06,1.01,.15,.62,.94,.62,1.77,.14,.59-.34,1.36-.73,1.92-.82-.14-.07-.28-.17-.44-.33-.45-.45-.92-.92-1.41-1.27-.42-.29-1.2-.99-1.86-1.27-1.08-.46-1.94-.45-3.31-1.14-1.17-.58-1.69-1.2-1.99-2.05,.31,.69,1.12,1.14,2.15,1.55,1.05,.41,1.82,.62,2.66,.82,.74,.17,1.38,.47,1.88,.82,.52,.37,1.01,.86,1.48,1.33,.18,.18,.63,.91,.81,1.07-.03-.05-.04-.11-.07-.15-.17-.37,.05-1.05,.19-1.83,.13-.79-.2-1.07-.94-.76-.74,.31-1.1-.26-.92-.78,.17-.52,.17-1.16-.18-1.76-.34-.59-.83-.95-1.28-.19-.45,.76-1.22,.09-1.08-.48,.15-.58,.22-1.03-.42-1.7-.63-.67-1.48-.07-1.92,.56-.43,.63-.93,.3-.94-.25,0-.55-.17-1.41-.77-1.34-.57,.07-.79,.76-.98,1.05,0-.02,0-.04,0-.05-.09,.01-.19,.03-.34,.07-.81,.22-.23,.82-.32,1.32-.1,.51-.82,.14-.84,1.05-.02,.9,1.16,1.05,1.75,1.38,.58,.32,.04,1.15-.16,1.1-.21-.04-.92-.33-.57,.78,.35,1.1,1.88,.9,2.93,.78Z"/>
      <path class="cls-1" d="M.71,45.21c.08-.31,.15-.56,.21-.7,.52-1.22,1.48-1.57,1.94-1.7,4.87-1.39,6.19-2.34,6.4-3.71,.08-.51,0-1.31,.07-2.11,.07-.35,.15-.73,.24-1.14,.28-1.26-1.27-2.94-2.44-4-.32,.66-.67,1.45-.95,2.37,.37,.17,.73,.37,1.06,.59,.68,.48,.79,1.15,.96,1.99-.85,.79-2.42,1.49-4.74,2.3-1.53,.54-2.82,1.6-3.3,3.4-.28,1.03-.03,4.32-.12,5.64,0,.04,0,.07,0,.07,0,.88,2.14,3.53,2.3,2.93,.34-1.29,.41-3.02,.43-3.42,.05-.64-2.35-.43-2.04-2.51H.71Z"/>
      <path class="cls-1" d="M3.37,33.43c.08,0,.18,.02,.29,.04,.15-.35,.3-.67,.46-.97,.05-.05,.09-.1,.11-.14,.64-1.05,1.71-.85,3.2-.98,.03,0,.06,0,.09,0,.27,0,.55-.02,.79-.09,.24-.06,.44-.15,.63-.24,.35-.14,.65-.34,.83-.6,.03-.04,.05-.08,.07-.12,.53-.63,.84-1.52,1.14-2.66,.31-1.16,1.38-.1,.95-1.61-.24-.83,.43-1.5-.14-1.31-.57,.18-2.3,.21-2.52,2.76-.07,.72-.3,1.4-.62,1.91-1.15,1.06-2.68,0-4.42,1.81-.13,.14-.3,.36-.46,.61h0c-.84,1.23-.82,1.56-.41,1.6Z"/>
      <path class="cls-1" d="M76.49,78.69c.22-1.59,.47-3.04,.77-4.36-.64-.45-.62,.09-.64,.24-.02,.15-.74,.32-.82-.17-.08-.49,.11-1.35-.52-1.57-.64-.22-.57,.38-.95,.32-.38-.06-.65-.62-1.01-.11-.07,.09-.11,.16-.14,.22,.01,0,.02,0,.04,.01-.25,.06-.79,.04-.99,.42-.2,.4,.36,.74,.75,.88,.38,.14,.49,.58-.07,.73-.55,.14-1.19,.59-.88,1.2,.31,.62,.65,.69,1.09,.72,.44,.04,.71,.75,.06,.88-.64,.13-.52,.56-.18,.95,.33,.39,.78,.56,1.19,.57,.34,0,.6,.28,.46,.62-.21-.05-.41-.09-.62-.1-1-.04-2.22-.12-2.64,.18,0,0-.01,.02-.02,.04-.05,.14-.27,.44-.13,.68,.14,.24,.51,.06,.72-.08,.2-.15,.47-.06,.35,.28-.11,.33-.1,.82,.32,.87,.42,.05,.58-.1,.75-.32,.17-.21,.63-.11,.48,.27-.16,.38,.11,.45,.43,.42,.32-.04,.55-.22,.7-.43,.14-.21,.45-.23,.55,.13,.09,.36,.22,.31,.54,.14,.13-.07,.27-.18,.38-.29,0-.04,.01-.07,.02-.1,.2-1.22-.08-2.62,0-3.24Zm-.65,2.23c-.16-.35-.31-.7-.41-1.06-.12-.44-.17-.97-.1-1.53,.08-.64,.2-1.43,.07-2.52-.09-.82-.43-1.38-.83-1.78,.51,.43,.95,1.06,1.07,2.03,.13,1.14,.04,1.96-.04,2.62-.07,.53,.18,1.14,.29,1.51,.09,.34,.24,.68,.4,1.02-.17-.1-.35-.17-.45-.29Z"/>
      <path class="cls-1" d="M86.76,78.02c-.85-.56-3.78-1.47-3.27-1.2,1.07,.58,2.49,1.8,2.67,1.95,.79,.67,.9,1.21-3.6,1.95-2.87,.47-5.87,.59-5.61,1.7,.4,1.74-.19,4.68,.05,4.62,3.44-.96,5.96,2.12,7.67,.62,1.7-1.5-.09-5.44,1.96-6.38,2.05-.94,.99-2.7,.14-3.27Z"/>
      <path class="cls-1" d="M76.79,62.39l.15-.1s-.09-.05-.17-.09c-.07,.06-.16,.11-.3,.14-.61,.13-1.31,.58-1.01,1.25,.29,.64,.63,.76,1.06,.82-.15-.24-.24-.49-.26-.74-.05-.46,.12-.89,.47-1.22l.06-.06Z"/>
      <path class="cls-1" d="M76.07,71.52c-.43,.31-.39,.59,.09,.79,.41,.17,1.05,.43,1.45,.64,.14-.49,.29-.96,.45-1.42,.04-.1,.07-.2,.11-.3,.47-1.26,1.04-2.42,1.76-3.51l-.94-1.22c-.21-.27-.73-.67-1.41-1.08-.31-.19-.56-.39-.77-.61-.12-.09-.25-.12-.44,.07-.07,.06-.12,.12-.15,.16,.01,0,.02,.01,.03,.02-.23,0-.69-.11-.92,.19-.25,.31,.18,.7,.49,.9,.3,.19,.32,.59-.18,.61-.51,.02-1.14,.3-.98,.89,.15,.58,.44,.7,.81,.82,.38,.12,.48,.78-.1,.77-.58,0-.55,.39-.33,.79,.21,.4,.57,.63,.93,.71,.35,.08,.55,.48,.12,.79Z"/>
      <path class="cls-1" d="M71.09,49.26c.54-.04,.93,.43,.33,.92-.59,.48-1.1,1.38-.38,1.95,.72,.57,1.17,.46,1.73,.26,.55-.2,1.29,.51,.57,1.03-.71,.52-.31,.97,.31,1.26,.62,.29,1.26,.24,1.76,.02,.45-.2,.98,.04,.9,.64-.33,.13-.22,.35-.11,.49,0,.05,0,.09,0,.14,.07-.13,.17-.26,.29-.38,.19-.2,.37-.35,.55-.45,.49-.28,.89-.18,1.09-.1,0,0,.02,0,.03,.01-.06-.66,0-1.54,.84-2.03,.82-.43,1.37-.21,1.68,0,.1-.09,.23-.21,.39-.3,.55-.32,1.16-.21,1.65,.3,.1,.1,.19,.2,.26,.3,.46,0,1.22,.05,1.69,.71,.16,.23,.25,.49,.25,.77,.69-.36,1.42-.54,1.45-1.28,.07-1.5,.16-4.05-.27-3.59-.43,.43-.91,.92-1.39,1.39-.26-.63-.68-.18-.89-.51-.09-.15-.1-.35-.13-.52,.5-.23,.76-.59,.53-.94-.27-.4-.7,.09-.59-.48,.11-.57,.59-.58,1.1-.7,.51-.13,.97-.31,.99-.97,0-.66-.43-.61-.85-.41-.42,.2-.91,.08-.31-.43,.6-.52,1.5-1.26,1.06-2.02-.43-.76-.64-.22-.72-.08-.08,.13-.81,0-.7-.48,.12-.48,.64-1.22,.13-1.67-.52-.45-.69,.13-1.01-.07-.33-.2-.36-.83-.9-.5-.1,.06-.17,.11-.21,.16,0,0,.02,.02,.03,.03-.26-.04-.75-.27-1.08,0-.34,.29,.05,.83,.35,1.11,.3,.29,.23,.74-.34,.65-.57-.09-1.34,.08-1.29,.78,.04,.69,.33,.89,.73,1.1,.39,.21,.36,.98-.29,.84-.65-.14-.7,.31-.55,.81,.15,.5,.51,.83,.89,.99,.38,.17,.51,.66-.04,.91-.55,.25-.57,.58-.06,.91,.33,.22,.82,.54,1.21,.82,0,.02,.01,.05,.02,.07,.15,.39-.12,.78-.61,.44-.48-.33-1.26-.52-1.53,.13-.21,.52-.14,.83,.03,1.11-.41,.09-.39,.68-.79,.15-.47-.61-.05-1.09,.28-1.71,.33-.62,.56-1.23-.08-1.83-.64-.6-.98-.12-1.16,.47-.17,.59-.72,.96-.69-.08,.03-1.04,.09-2.59-1.04-2.84-1.13-.24-.79,.44-.72,.64,.06,.2-.71,.81-1.09,.26-.37-.55-.63-1.71-1.53-1.61-.9,.1-.47,.79-.97,.93-.49,.14-1.13-.38-1.28,.44-.03,.15-.03,.26-.04,.34,.02,0,.04,0,.05,0-.27,.22-.93,.49-.96,1.07-.01,.6,.86,.69,1.4,.65Z"/>
      <path class="cls-1" d="M74.21,60.88c.51,.18,.82,.12,1.09-.05-.13-.33-.17-.72-.06-1.2,.12-.52,.36-.88,.71-1.09,.11-.07,.25-.12,.41-.15-.32-.62-.54-1.31-.36-1.97-.14,.09-.3,.12-.47,0-.43-.32-.94-1.13-1.59-.82-.66,.32-.16,.73-.49,.97-.33,.24-.97,.01-.86,.68,.02,.13,.05,.21,.06,.27,.01,0,.03,0,.04-.02-.15,.24-.58,.62-.43,1.07,.14,.46,.83,.3,1.24,.12,.4-.18,.82,.08,.49,.61-.32,.52-.47,1.35,.23,1.59Z"/>
      <path class="cls-1" d="M80.25,61.53c-.24-.86-.54-1.92-.6-3.46-.09-2.5,1.66-3.65,2.68-4.21-.04-.07-.12-.16-.22-.27-.58-.6-.83,.2-1.32,.35-.49,.16-.53-.65-1.33-.23-.8,.42-.36,1.53-.36,2.19,0,.66-.99,.59-1.05,.39-.05-.2-.15-.96-.95-.12-.8,.83,.12,2.09,.72,2.94,.6,.86-.06,.85-.53,.46-.48-.39-1.03-.6-1.22,.25-.2,.86,.33,1.23,.95,1.56,.62,.33,1.23,.49,1.19,1.26-.05,.77-.44,0-.91,.43-.47,.43-.09,1.12,.73,1.62,.58,.35,1.3,.85,1.64,1.29,0-.15,.02-.33,.08-.55,.18-.61,.37-1.25,.43-1.85,.06-.51,.27-1.38,.07-2.06Z"/>
      <path class="cls-1" d="M83.53,59.37c.57-.15,1.01-.31,1.29-1.19,.29-.87-.64-1.33-1.41-1.41-.76-.07-.71-.67-.24-.94,.48-.27,1.16-.83,.81-1.32-.35-.49-1.12-.31-1.45-.36-.04,0-.17-.09-.19-.09-.95,.54-2.32,1.61-2.23,3.81,.05,1.48,.49,2.57,.72,3.41,.21,.73,.25,1.44,.18,2.04-.07,.64-.27,1.3-.45,1.93-.07,.25-.14,.49-.21,.73,.04-.04,.07-.09,.11-.13,.23-.33,.94-.45,1.69-.72,.75-.26,.84-.69,.21-1.19-.63-.49-.3-1.09,.24-1.18,.54-.1,1.1-.41,1.46-1,.35-.59,.43-1.19-.45-1.22-.88-.03-.67-1.03-.1-1.17Z"/>
      <path class="cls-1" d="M76.02,84.87c-1.1,1.09-7.44-.92-9.53,.91-.33,.12-.56,.35-.69,.8-.56,1.92-.56,3.94-.33,4.87,.49-.32,2.06-1.04,2.29-1.28,1.58-1.69-1.8-1.58-1.51-3,.1-.19,.21-.36,.36-.44,1.5-.86,2.51,1.87,2.92,2.51,.21,.33,4.33-.07,5.45,.35,1.46-2.22,1.41-5.08,1.04-4.72Z"/>
      <path class="cls-1" d="M89.1,66.01c-.09-.51,.49-1.1-.32-1.32-.15-.04-.26-.06-.34-.07v.05c-.19-.29-.41-.98-.98-1.05-.59-.07-.77,.79-.77,1.34,0,.55-.51,.88-.94,.25-.43-.63-1.28-1.23-1.92-.56-.63,.67-.57,1.13-.42,1.7,.15,.57-.62,1.24-1.08,.48-.46-.76-.94-.4-1.28,.19-.35,.59-.35,1.24-.17,1.76,.17,.52-.19,1.09-.93,.78-.73-.31-1.07-.03-.94,.76,.13,.78,.36,1.47,.18,1.83-.02,.05-.04,.1-.06,.15,.18-.17,.62-.89,.81-1.07,.47-.47,.96-.96,1.48-1.33,.5-.35,1.14-.65,1.88-.82,.84-.2,1.62-.4,2.67-.82,1.02-.4,1.83-.86,2.15-1.55-.31,.84-.82,1.46-1.99,2.05-1.38,.69-2.24,.68-3.32,1.14-.66,.28-1.44,.98-1.85,1.27-.49,.34-.96,.81-1.42,1.27-.16,.16-.3,.26-.44,.33,.55,.09,1.33,.48,1.92,.82,.83,.48,1.62,.48,1.77-.14,.15-.62-.71-.6-.06-1.01,.65-.41,1.09,.05,1.68,.43,.59,.39,1.17,.67,1.83,.09,.66-.58,.21-.97-.37-1.19-.57-.22-.89-.81,.15-.68,1.04,.12,2.58,.32,2.93-.78,.34-1.1-.36-.82-.57-.78-.2,.05-.74-.78-.16-1.1,.58-.32,1.76-.47,1.75-1.38-.02-.9-.74-.54-.84-1.05Z"/>
      <path class="cls-1" d="M92.83,42.5c-.49-1.8-1.77-2.86-3.31-3.4-2.31-.81-3.89-1.51-4.73-2.3,.16-.84,.27-1.51,.95-1.99,.32-.23,.68-.42,1.05-.59-.28-.92-.63-1.71-.95-2.37-1.18,1.06-2.72,2.75-2.44,4,.09,.4,.17,.79,.24,1.14,.07,.79,0,1.6,.07,2.11,.21,1.36,1.52,2.31,6.39,3.71,.46,.13,1.42,.49,1.94,1.7,.06,.14,.14,.39,.21,.7h0c.31,2.08-2.08,1.87-2.03,2.51,.03,.4,.09,2.13,.43,3.42,.16,.6,2.29-2.05,2.29-2.93,0,0,0-.03,0-.07-.09-1.32,.15-4.61-.13-5.64Z"/>
      <path class="cls-1" d="M81.98,27.67c.3,1.14,.61,2.03,1.14,2.66,.03,.04,.05,.08,.08,.12,.18,.26,.48,.45,.83,.6,.19,.1,.4,.18,.63,.24,.24,.07,.52,.09,.79,.09,.03,0,.06,0,.09,0,1.5,.13,2.57-.07,3.2,.98,.03,.05,.06,.09,.11,.14,.16,.29,.31,.62,.46,.97,.11-.02,.21-.03,.29-.04,.41-.04,.44-.37-.41-1.59,0,0,0,0,0,0-.16-.25-.33-.48-.45-.61-1.74-1.81-3.27-.75-4.42-1.81-.33-.51-.56-1.18-.62-1.91-.24-2.55-1.96-2.58-2.53-2.76-.57-.19,.09,.49-.14,1.31-.42,1.51,.65,.45,.95,1.61Z"/>
    </g>
    <g>
      <path class="cls-1" d="M44.68,99.22v1.04c.6,.05,1.2,.08,1.76,.08,.6,0,1.22-.03,1.86-.07v-1.05c-.61,.04-1.22,.06-1.83,.06s-1.19-.02-1.79-.05Z"/>
      <path class="cls-1" d="M62.03,71.29c.48-.12,.85-.7,.85-1.4,0-.79-.46-1.42-1.04-1.42h-.2c-1.54-.63-7.74-1.1-15.15-1.1s-13.61,.47-15.15,1.1h-.2c-.58,0-1.05,.63-1.05,1.42,0,.7,.37,1.27,.86,1.4,.16,5.19,4.52,9.56,10.55,11.14-.38,.38-.62,.91-.62,1.5,0,1.16,.94,2.1,2.1,2.1h.34c.66,.42,1.37,.96,1.37,1.65v2.55c.31,.02,.61,.04,.92,.05,.19,.01,.37,.02,.56,.02v-3.78c0-.18,.15-.33,.33-.33s.33,.15,.33,.33v3.79c.22,0,.44-.02,.68-.04,.26,0,.53-.03,.8-.05v-2.55c0-.69,.71-1.23,1.37-1.65h.34c1.16,0,2.1-.94,2.1-2.1,0-.58-.24-1.12-.63-1.5,6.03-1.58,10.4-5.96,10.56-11.14Zm-30.89-1.53c0-.19,.43-.34,.98-.34h28.75c.54,0,.98,.15,.98,.34s-.43,.34-.98,.34c0,0-5.99,.3-14.38,.3-9.38,0-14.37-.3-14.37-.3-.54,0-.98-.15-.98-.34Zm20.93,2.94c0,1.86-3.42,7.94-3.41,7.49,0-.67,1.13-5.63,1.13-7.49s.51-.93,1.14-.93,1.14-.93,1.14,.93Zm-3.71,0c0,1.86-.97,7.64-1.74,7.64s-1.73-5.78-1.73-7.64,.78-.93,1.73-.93,1.74-.93,1.74,.93Zm-4.04,7.49c0,.45-3.41-5.63-3.41-7.49s.51-.93,1.13-.93,1.15-.93,1.15,.93,1.13,6.82,1.13,7.49Zm-11.75-7.58c0-1.71,.11-.86,.52-.86s.74-.85,.74,.86c0,3.24,4.08,5.58,4.4,6.23,.19,.39-5.65-3.45-5.65-6.23Zm2.53,.05c0-1.78,.12-.9,.56-.9s.79-.89,.79,.9c0,3.38,3.82,6.23,4.01,6.86,.13,.42-5.35-3.95-5.35-6.86Zm2.92,.05c0-1.86,.36-.93,.8-.93s.79-.93,.79,.93c0,3.52,2.76,6.63,2.76,7.3,0,.45-4.34-4.27-4.34-7.3Zm12.42,11.67h-7.93c-.49,0-.89-.2-.89-.43s.4-.44,.89-.44h7.93c.5,0,.9,.2,.9,.44s-.4,.43-.9,.43Zm.16-4.37c0-.67,2.75-3.78,2.75-7.3,0-1.86,.36-.93,.79-.93s.79-.93,.79,.93c0,3.03-4.34,7.75-4.34,7.3Zm1.9-.49c.19-.62,4.02-3.48,4.02-6.86,0-1.78,.35-.9,.79-.9s.56-.89,.56,.9c0,2.91-5.49,7.28-5.36,6.86Zm2.24-.67c.32-.65,4.4-3,4.4-6.23,0-1.71,.33-.86,.74-.86s.52-.85,.52,.86c0,2.79-5.85,6.63-5.65,6.23Z"/>
      <path class="cls-1" d="M59.16,9.12c.04,.52-.08,.95-.36,1.26,0,.02-.03,.03-.05,.05-.06,.05-.12,.11-.19,.16,0,0-.02,.01-.03,.02-.09,.06-.19,.12-.3,.17,.08,0,.17,0,.24-.02,1.18-.14,1.67-1.35,1.69-1.85,.02-.48-.12-1.06-.24-1.57-.07-.31-.04-.9-.04-1.21,.5,.2,1.16,.45,1.66,.6,.35,.11,.52,.11,.76,.12,.91,.78-.06,1.66-.19,1.84-.76,1.06-.76,1.89-.08,2.73,.34,.41,.78,.7,1.02,1.15,.14-.76-.16-1.12-.42-1.44-.12-.15-.23-.29-.3-.45-.2-.53,.31-1.03,.31-1.03,.02,.21,.18,.74,.51,.99,.74,.55,1.57,.1,1.79,.32,.08,.07,.15,.16,.2,.24,.1-.31,.11-.54,.01-.68-.14-.21-.51-.22-.9-.21-.47,.02-.69-.23-.73-.45-.05-.25,.11-.6,.57-.75,.26-.09,.88-.42,.85-1.48-.02-.96-1.04-1.09-2.17-1.14-.14,0-.27-.01-.39-.02-.6-.05-1.36-.32-1.96-.54-.28-.1-.54-.2-.74-.25-.66-.19-1.05-.24-1.66,.13-.61,.36,.07,1.34,.56,2.09,.2,.31,.51,.56,.56,1.24Z"/>
      <path class="cls-1" d="M28.04,10.95c.22-.21,1.06,.24,1.79-.31,.34-.25,.5-.77,.51-.99,0,0,.52,.5,.31,1.03-.06,.17-.18,.3-.3,.45-.26,.32-.56,.68-.42,1.44,.24-.45,.68-.74,1.02-1.15,.69-.84,.69-1.67-.08-2.73-.13-.18-1.11-1.07-.2-1.84,.24,0,.42-.01,.77-.12,.49-.15,1.16-.4,1.66-.6,0,.31,.03,.9-.04,1.21-.12,.52-.26,1.09-.24,1.57,.02,.5,.5,1.71,1.69,1.85,.08,.01,.16,.02,.24,.02-.12-.05-.21-.11-.3-.17,0,0-.02-.01-.03-.02-.07-.05-.13-.11-.19-.17-.02-.01-.03-.03-.04-.04-.27-.31-.39-.74-.35-1.26,.05-.67,.36-.92,.56-1.24,.48-.75,1.16-1.72,.55-2.09-.61-.36-1-.31-1.66-.13-.2,.05-.45,.15-.74,.25-.61,.22-1.36,.49-1.96,.54-.11,.01-.25,.02-.39,.02-1.12,.05-2.14,.18-2.17,1.14-.03,1.07,.59,1.39,.85,1.48,.46,.16,.61,.5,.57,.75-.04,.22-.26,.47-.73,.45-.38-.02-.76,0-.9,.21-.09,.14-.09,.37,0,.68,.05-.08,.12-.17,.2-.24Z"/>
      <polygon class="cls-1" points="47.67 26.34 45.34 26.34 45.34 29.7 41.98 29.7 41.98 32.04 45.34 32.04 45.34 35.4 47.67 35.4 47.67 32.04 51.03 32.04 51.03 29.7 47.67 29.7 47.67 26.34"/>
      <path class="cls-1" d="M14.71,87.61c-1.94,.39-3.11,1.17-3.96,1.58,.87,3.37,2.48,6.76,5.65,9.78,.1,.09,.19,.18,.29,.26,.11-.29,.19-.57,.26-.85,.26-1.14,.49-2.28,.68-3.4,.14-.8,.29-1.59,.48-2.29-1.15-1.63-1.9-3.31-2.41-5.03-.25-.08-.58-.14-.99-.05Z"/>
      <path class="cls-1" d="M5.42,42.86c-.57,.25-1.2,.49-1.88,.71,.09,2.14-.04,5-.77,10.43-.52,3.9,.21,7.35,1.26,9.93h.04c.2-.38,.56-.91,1.21-1.05l.14-.02c.36-.04,.71,.07,.99,.31,.34,.3,.5,.75,.57,1.15,.21-.21,.43-.37,.67-.49-1.3-2.09-1.84-3.84-2.18-6.29-.48-3.46,.58-8.68-.04-14.66Z"/>
      <path class="cls-1" d="M14.43,80.58c-.06-.48-.12-.96-.19-1.44-.27-1.99-.59-3.76-1-5.36-.28,.12-.58,.29-.91,.47-.33,.19-.66,.32-.97,.39-1.09,.23-1.74-.33-1.91-1.01-.04-.15-.05-.29-.04-.42-.05,.04-.43,.3-.43,.3-.03,.02-.07,.04-.11,.06,.29,1.28,.52,2.82,.65,4.68,.04,.54,.07,1.11,.1,1.69,.42,.07,.83,.13,1.24,.17,1.07,.09,2.42,.21,3.56,.45Z"/>
      <path class="cls-1" d="M5.77,31.84c-.67,.56-2.26,2.36-2.45,6.67,.51-.15,.98-.31,1.41-.46-.25-4.28,1.77-6.81,1.05-6.2Z"/>
      <path class="cls-1" d="M77.27,87.66c-.51,1.72-1.25,3.39-2.41,5.03,.19,.7,.34,1.49,.48,2.29,.19,1.12,.42,2.26,.68,3.4,.06,.28,.15,.56,.25,.85,.1-.09,.2-.17,.3-.26,3.17-3.02,4.78-6.42,5.65-9.78-.85-.41-2.02-1.19-3.96-1.58-.41-.08-.73-.03-.99,.05Z"/>
      <path class="cls-1" d="M90.19,54.01c-.72-5.43-.85-8.29-.76-10.43-.68-.22-1.31-.46-1.87-.71-.63,5.99,.43,11.2-.05,14.66-.34,2.45-.88,4.2-2.18,6.29,.24,.12,.46,.29,.67,.49,.07-.4,.24-.85,.58-1.15,.27-.24,.62-.35,.99-.31l.14,.02c.65,.14,1.01,.67,1.21,1.05h.04c1.05-2.57,1.77-6.02,1.25-9.92Z"/>
      <path class="cls-1" d="M83.56,73.22c0,.13,0,.26-.04,.42-.17,.67-.82,1.24-1.91,1.01-.32-.07-.65-.2-.98-.39-.32-.19-.63-.35-.9-.47-.42,1.6-.73,3.37-1.01,5.36-.07,.48-.13,.96-.19,1.44,1.14-.25,2.49-.36,3.56-.45,.41-.03,.83-.09,1.24-.17,.03-.58,.06-1.15,.1-1.69,.13-1.87,.36-3.4,.65-4.68-.04-.02-.07-.04-.1-.06,0,0-.38-.26-.43-.3Z"/>
      <path class="cls-1" d="M88.25,38.04c.43,.16,.9,.31,1.41,.46-.19-4.31-1.78-6.1-2.45-6.67-.72-.61,1.29,1.92,1.05,6.2Z"/>
      <path class="cls-1" d="M72.73,32.39c-.1-.08-.47-.21-.99-.35-.09,0-.17,0-.24,0,.04-.06,.08-.13,.13-.2,.05,0,.09,0,.13,0,3.07,.01,3.88-1.3,4.04-1.64-.17-.2-.69-.72-1.37-.79-.15-.02-.81,.02-1.7,.08,.03-.09,.06-.17,.08-.26,1.49-.34,3.22-1.06,3.57-2.55-.87-.33-2.02-.26-3.16-.02,0-.07,0-.14,0-.22,1.33-.5,2.94-1.74,3.07-2.59-.03-.01-.06-.02-.08-.04-.28-.12-.67-.29-2.03-.1-.17,.02-.6,.18-1.14,.39-.02-.12-.04-.24-.06-.36,1.38-.61,2.96-1.92,3.07-2.8-.03-.01-.06-.03-.09-.04-.31-.13-.72-.3-2.17-.05-.2,.03-.75,.25-1.42,.54-.01-.04-.02-.08-.04-.12,2.28-1.78,2.15-3.18,2.16-3.65-.25-.04-.59-.16-2.22,.72-.23,.13-.53,.3-.87,.52-.04-.08-.07-.16-.11-.24,.06-.06,.13-.13,.19-.19,1.65-1.61,1.4-2.62,.95-3.5-.6,.27-1.33,.89-2.17,1.7-.04-.06-.08-.13-.11-.19,.03-.03,.05-.05,.08-.09,1.5-1.74,.95-2.96,.42-3.8-.25,.47-.83,1.23-1.62,2.13-.04-.06-.08-.11-.12-.17,0,0,0-.01,0-.02,.71-2.29-.52-3.57-1.05-4-.2,.58-.46,1.18-.75,1.79h0s-.6,1.13-2.4,3.62c-1.43,1.98-4.97,5.47-4.37,6.97,.66,1.65,1.84,3.36,.6,4.82-.86,1.01-2.65,.18-3.68-.96,.55-.53,.74-1.66,.66-1.98-1.3,.47-3.32-.03-3.88-.7,.54,0,.85-.36,1.04-.76-.93-.15-2.14-.91-2.59-1.35-1.61-1.57-1.14-2.74-.43-4.77,.24-.71,.85-1.47,1.44-1.86,.34-.05,1.43-.12,2.79,.79,.85,.57,2,.31,2,.31,0,0-1.32-.84-2.24-1.44,.64,.02,1.33,.15,2.08,.55,.43,.24,1.54,.9,2.85,.38,.16-.06,.75-.52-.17-.29-1.47,.36-3.01-1.14-3.57-1.31h0c1.28,.17,2.53,.48,2.77,1.03,.46-.33,.74-.85,.59-1.25-.25-.66-1.45-1.28-2.27-1.69,0,0,.46-.92-1.17-1.46,.03-.01,.05-.02,.07-.04v-.35h-.02c.03-.1,.15-.44,.3-.79l.03-.07c.17-.41,.41-.98,.05-1.44-.27-.36-.84-.47-1.15-.43-.05,0-.1,.02-.13,.03,0-.02,0-.04,0-.05,0-.1-.03-.19-.09-.25v-.07s-.04-.13-.04-.13l.2,.03,.09,.02v-.68h-.08s-.25,.05-.25,.05l.03-.21,.02-.09h-.63v.09s.05,.2,.05,.2l-.22-.03-.08-.02v.69l.08-.02,.21-.03-.03,.13-.03,.09h.04c-.05,.07-.08,.15-.08,.24v.05s-.08-.02-.13-.03c-.34-.04-.98,.06-1.29,.43-.39,.47-.13,1.03,.06,1.45l.04,.07c.12,.26,.24,.53,.31,.7h0c-2.04-.32-3.86-.75-4.81-.99-.37-.5-.66-.98-.76-1.38,0,0,0,0,.02-.01l-.02-.44s.06-.14,.12-.28h0c.13-.32,.34-.82,.56-1.29l.06-.14c.36-.75,.83-1.79,.11-2.64-.56-.67-1.74-.87-2.36-.79-.09,.01-.17,.03-.24,.05,0-.03,0-.07,0-.1,0-.16-.05-.31-.14-.44h.07l-.04-.16-.05-.24,.38,.06,.15,.02V.45l-.15,.02-.39,.06,.06-.38,.03-.15h-1.16l.03,.15,.06,.38-.46-.06-.15-.02V1.7l.15-.02,.38-.06-.05,.24-.02,.13c-.1,.13-.16,.29-.16,.46,0,.03,0,.07,0,.1-.07-.03-.15-.05-.24-.05-.58-.07-1.62,.13-2.12,.8-.64,.85-.22,1.87,.09,2.63l.06,.14c.26,.64,.49,1.26,.55,1.45h-.04v.64h0c.06,.04,.13,.07,.18,.1-.13,.37-.39,.79-.72,1.22-.95,.24-2.77,.67-4.81,.99h0c.07-.17,.19-.45,.31-.71l.04-.07c.19-.42,.45-.98,.06-1.45-.31-.36-.95-.47-1.29-.43-.05,0-.1,.02-.13,.03,0-.02,0-.04,0-.05,0-.09-.03-.17-.08-.24h.04l-.02-.09-.03-.13,.21,.03,.08,.02v-.69l-.08,.02-.21,.03,.03-.2v-.09s-.07,0-.07,0h-.54v.09s.05,.21,.05,.21l-.25-.04h-.08s0,.07,0,.07v.6l.08-.02,.21-.03-.03,.13v.07c-.07,.07-.1,.16-.1,.25,0,.02,0,.04,0,.05-.04-.01-.08-.02-.13-.03-.32-.04-.88,.07-1.16,.43-.35,.46-.11,1.02,.05,1.44l.03,.07c.15,.35,.27,.69,.3,.79h-.02v.35s.04,.02,.07,.04c-1.63,.54-1.17,1.46-1.17,1.46-.83,.41-2.02,1.03-2.27,1.69-.15,.4,.13,.91,.58,1.25,.24-.55,1.5-.85,2.77-1.03h0c-.56,.17-2.11,1.67-3.57,1.31-.92-.23-.33,.23-.17,.29,1.31,.52,2.41-.14,2.85-.38,.75-.4,1.44-.53,2.07-.55-.92,.6-2.23,1.44-2.23,1.44,0,0,1.15,.26,2-.31,1.37-.92,2.45-.85,2.79-.79,.59,.39,1.19,1.16,1.44,1.86,.71,2.04,1.18,3.21-.43,4.77-.45,.43-1.66,1.2-2.6,1.35,.19,.4,.5,.76,1.04,.76-.55,.68-2.58,1.17-3.88,.7-.08,.32,.1,1.45,.66,1.98-1.03,1.14-2.82,1.97-3.68,.96-1.24-1.46-.06-3.16,.6-4.82,.6-1.5-2.94-5-4.37-6.97-1.81-2.5-2.4-3.63-2.4-3.63h0c-.29-.6-.55-1.2-.75-1.78-.54,.43-1.77,1.71-1.06,4,0,0,0,.01,0,.02-.04,.06-.08,.11-.12,.17-.78-.9-1.37-1.66-1.61-2.13-.53,.84-1.09,2.06,.41,3.8,.03,.03,.05,.06,.08,.09-.03,.06-.07,.12-.11,.19-.85-.81-1.58-1.43-2.17-1.7-.46,.89-.71,1.89,.94,3.5,.07,.06,.14,.13,.2,.19-.04,.08-.08,.16-.11,.24-.34-.21-.65-.39-.87-.52-1.63-.88-1.97-.75-2.22-.72,.01,.46-.12,1.86,2.16,3.65,0,.04-.02,.08-.04,.12-.68-.29-1.22-.51-1.43-.54-1.45-.24-1.86-.07-2.17,.05-.03,.01-.06,.03-.09,.04,.11,.88,1.68,2.19,3.07,2.8-.03,.12-.05,.24-.07,.36-.55-.22-.97-.37-1.15-.39-1.36-.19-1.74-.02-2.02,.1-.03,.01-.06,.03-.08,.04,.14,.85,1.73,2.09,3.07,2.59,0,.07,0,.14,0,.22-1.14-.24-2.29-.31-3.16,.02,.34,1.49,2.08,2.21,3.56,2.55,.03,.09,.06,.17,.09,.26-.89-.06-1.55-.09-1.7-.08-.68,.07-1.2,.59-1.38,.79,.16,.34,.98,1.65,4.05,1.64,.05,0,.08,0,.13,0,.04,.07,.09,.14,.13,.2-.08,0-.16,0-.24,0-.52,.14-.9,.27-.99,.35-.46,.38-.99,1.17-1.04,1.45,.36,.46,.95,.69,1.82,.68,.25,0,1.03-.31,1.88-.69,.06,.07,.13,.13,.19,.19-.05,0-.09,.02-.14,.03-.48,.25-.81,.46-.89,.56-.36,.48-.7,1.36-.68,1.64,.45,.37,1.09,.45,1.93,.25,.22-.05,.81-.45,1.48-.95,.08,.06,.16,.12,.25,.17-.39,.35-.65,.62-.7,.74-.24,.55-.35,1.49-.27,1.76,.53,.25,1.16,.18,1.93-.22,.19-.1,.61-.57,1.1-1.15,.16,.07,.33,.14,.5,.21-.38,.45-.68,.83-.77,.97-.4,.62-.49,1.48-.23,2.03,1.03,.25,2.01-.64,2.28-.92,.22-.22,.58-.73,.95-1.31,.11,.03,.23,.07,.34,.1-.28,.56-.48,1.12-.47,1.51,.05,1.19,.63,1.52,.77,1.58,.14-.02,.85-.14,1.69-1.05,.23-.24,.44-.81,.62-1.4,.15,.03,.29,.06,.42,.08-.09,.62-.14,1.25-.07,1.62,.06,.33,.54,.72,.78,.88,.2-.04,.95-.25,1.32-1.38,.13-.4,.22-1.2,.27-1.78,.58-1.41,1.83-3.71,3.53-2.58,.91,.96,1.76,2.24,1.88,3.71-.18,2.81-1.38,3.87-6.46,4.92-1.29,.27-2.9,.34-4.15,.8,.26,.37,.52,.23,.91,.33-2.62,1.03-3.22,1.9-4.13,2.73,.31,.31,1.24,.27,2.12-.32-1.09,1.45-2,2.75-2.46,3.72,.46,.08,1.58,.07,2.46-.76,.07,.38,0,2.4-.86,3.28,.54,.17,1.19,.12,1.9-.06l-.88,2.23c.18-.01,.44,.03,.67,.13,.51-.49,1.15-.62,1.45-.21-.1-.01-.2-.02-.3,0-.83,.19-1.23,1.06-1.69,1.51-.3,.29-.31,.52-.29,.79,0,.21,.15,.39,.26,.53,0,.01,.02,.02,.03,.03-.09,.21-.18,.42-.16,.52,.04,.36-.38-.03-.51-.51-.08-.11-.13-.2-.18-.3,0-.03-.02-.06-.03-.09-.02-.06-.04-.13-.04-.19h0c0-.1,0-.19,.02-.27,0-.23,.06-.47,.26-.66,.06-.06,.34-.33,.69-.6-.15-.23-.5-.29-.7-.07-.16,.18-.33,.4-.43,.53-.13,.18-.2,.24-.39,.43-.58,.58-.17,1.12-.05,1.31,.06,.11,.15,.22,.25,.31-.05,.12-.06,.24-.03,.39,.09,.43-.53-.17-.66-.35h0s0,0,0,0c-.04-.04-.08-.08-.11-.13-.18-.22-.22-.45-.19-.67,0-.02,0-.04,0-.05,.01-.47,.25-.72,.51-.94,.11-.08,.36-.29,.34-.29-.17-.04-.29-.07-.6,.09-.48,.26-.86,.92-.92,1.09-.07,.21-.04,.57,.19,.84,.08,.1,.3,.19,.49,.24-.04,.11-.06,.2-.02,.26,.15,.26-.43,.07-.76-.22-.05-.05-.1-.11-.14-.18-.46,.33-.84,.65-1.12,.92-3.83,3.11-4.79,9.21-1.28,15.84,3.05,5.74,6.38,13.96,4.08,18.47,.26,.94,1.77,2.07,4.07,3.09,.45-.84,.79-1.79,1.04-2.83,1.95-8.43-3.82-15.66-6.74-22.22-2.56-5.76,.5-10.5,4.07-11.55-.02-.08-.02-.19,.03-.39,.09-.33,.27-.65,.29-.86,.02-.21,.24,0,.47,.31-.12,.02-.31,.7-.31,.7l-.07,.31s-.03,.11,.02,.17c.04,.05,.13,.07,.2,.07v.33c-.28,.02-1.3,.09-1.59,.29,.17,.16,.13,.44,.67,.53,.51,.08,.79-.19,1.08-.31,.21-.09,.43-.19,.65-.33,.36-.24,.08-.8,.03-.89-.03-.03-.07-.08-.11-.15,.11,0,.23,0,.34,0,.11,.02,1.33,.01,1.73,.05,.03,0,.06,.01,.08,.02,1.32,.54,1.28,1.88,3.63,3.18,1.55,.86,2.92,1.57,3.8,1.33,.1,.11,.18,.22,.26,.33,.52,.78,1.92,.87,1.92,.87,0,0-.13-.18-.4-.49,.21-.02,.43-.12,.67-.32-.17,0-1.34-.13-1.85-.7-.02-.02-.04-.04-.05-.05,0,0,.01-.01,.02-.01,.81-.55,.84-1.15,.31-2.32-.93-2.06-1.67-3.56-4-4.6-.51-.23-1.05-.36-1.63-.44-.07-.02-.15-.03-.26-.04-.54-.09-2.76-.27-3.83-.27-.6,0-1.16,.05-1.69,.13,.07-.16,.2-.43,.25-.5,.21-.05,.48-.09,.79-.09,.27,0,.65-.04,.65-.04,0,0-.18-.41-.37-.62,.31-1.17,1.24-2.8,1.97-3.98,.44,.61,1.39,1.07,3.24,.92-.62-.71-.75-2.7-.48-3.1,1.22,.59,2.47-.12,2.47-.12,0,0-1.19-.64-.65-1.72,.65-1.27,2.55-1.86,3.59-2.03,3.58-.6,2.24,5.02-2.09,3.86-.05,.57,1.52,1.56,2.55,1.8-.72,.79-2.55,1.38-3.35,.95,.81,1.89,3.49,2.08,4.94,1.42-.77,.99-2.33,1.69-3.3,1.71,.72,.78,1.95,1.6,3.16,1.28-.49,.92-.59,2.54-.59,2.54,0,0,1.2-.46,1.94-1.12,.26,1.13,.88,1.93,.88,1.93,0,0,.71-.94,.93-2.2,.67,.79,2.21,1.38,2.21,1.38,0,0-.1-1.58-.57-2.5,1.15,.21,2.31-.57,3-1.32-.97-.02-2.53-.71-3.3-1.71,1.45,.67,4.14,.48,4.94-1.42-.8,.43-2.63-.15-3.35-.95,1.03-.24,2.6-1.23,2.55-1.8-4.34,1.16-5.67-4.46-2.09-3.86,1.05,.17,2.95,.76,3.6,2.03,.54,1.08-.65,1.72-.65,1.72,0,0,1.25,.71,2.47,.12,.26,.4,.14,2.39-.48,3.1,1.84,.14,2.8-.31,3.23-.92,.74,1.18,1.67,2.81,1.98,3.98-.19,.21-.37,.62-.37,.62,0,0,.38,.04,.65,.04,.3,0,.58,.04,.79,.09,.05,.07,.18,.35,.24,.5-.52-.08-1.08-.13-1.68-.13-1.06,0-3.29,.18-3.83,.27-.11,0-.2,.02-.27,.04-.58,.09-1.11,.22-1.62,.44-2.33,1.04-3.07,2.53-4,4.6-.52,1.17-.5,1.77,.31,2.32,0,0,.01,0,.02,.01-.03,.02-.04,.04-.05,.05-.52,.56-1.69,.69-1.85,.7,.24,.19,.46,.3,.67,.32-.27,.31-.4,.49-.4,.49,0,0,1.39-.1,1.92-.87,.07-.11,.16-.22,.26-.33,.87,.24,2.25-.47,3.8-1.33,2.35-1.3,2.31-2.63,3.63-3.18,.02,0,.05-.01,.08-.02,.41-.04,1.63-.04,1.74-.05,.11,0,.23,0,.34,0-.04,.06-.08,.12-.11,.15-.05,.09-.34,.65,.03,.89,.21,.14,.44,.24,.64,.33,.28,.13,.57,.39,1.08,.31,.54-.09,.5-.36,.67-.53-.29-.2-1.31-.27-1.59-.29v-.33c.07,0,.16-.02,.2-.07,.05-.07,.03-.17,.03-.17l-.08-.31s-.19-.68-.31-.7c.23-.32,.45-.52,.46-.31,.02,.2,.21,.52,.3,.86,.05,.19,.05,.31,.03,.39,3.56,1.05,6.63,5.79,4.07,11.55-2.92,6.56-8.7,13.79-6.75,22.22,.24,1.04,.59,1.98,1.04,2.83,2.29-1.01,3.81-2.15,4.06-3.09-2.29-4.51,1.03-12.73,4.08-18.47,3.52-6.63,2.55-12.73-1.28-15.84-.28-.27-.66-.59-1.12-.92-.03,.07-.08,.13-.13,.18-.33,.29-.91,.48-.76,.22,.04-.06,.02-.16-.02-.26,.2-.05,.41-.14,.5-.24,.23-.27,.25-.63,.19-.84-.06-.17-.43-.83-.92-1.09-.31-.16-.43-.14-.6-.09-.01,0,.25,.21,.34,.29,.26,.22,.5,.48,.51,.94,0,.02,0,.04,0,.05,.03,.22-.02,.45-.19,.67-.03,.04-.07,.08-.12,.13,0,0,0,0,0,0h0c-.13,.18-.75,.78-.66,.35,.03-.14,.02-.27-.03-.39,.09-.09,.18-.2,.25-.31,.11-.19,.53-.74-.05-1.31-.19-.19-.26-.25-.4-.43-.1-.13-.26-.35-.43-.53-.2-.22-.54-.15-.7,.07,.35,.27,.64,.53,.7,.6,.2,.19,.25,.43,.25,.66,.03,.08,.04,.17,.03,.27h0c0,.06-.02,.13-.04,.19-.01,.03-.02,.06-.04,.09-.04,.09-.1,.19-.17,.3-.13,.48-.54,.86-.5,.51,.01-.1-.07-.31-.17-.52,.01,0,.02-.02,.04-.03,.11-.14,.24-.31,.26-.53,.02-.27,.01-.5-.29-.79-.47-.45-.87-1.32-1.69-1.51-.11-.02-.2-.02-.3,0,.3-.42,.94-.28,1.45,.21,.22-.09,.49-.14,.67-.13l-.88-2.23c.71,.18,1.36,.24,1.9,.06-.85-.89-.94-2.9-.87-3.28,.89,.83,2,.84,2.47,.76-.46-.97-1.36-2.27-2.47-3.72,.89,.59,1.82,.63,2.13,.32-.91-.83-1.5-1.7-4.13-2.73,.39-.1,.65,.04,.91-.33-1.26-.46-2.87-.53-4.16-.8-5.08-1.05-6.28-2.11-6.46-4.92,.12-1.47,.97-2.76,1.88-3.71,1.69-1.13,2.95,1.17,3.53,2.58,.05,.58,.13,1.38,.26,1.78,.37,1.13,1.12,1.34,1.31,1.38,.24-.16,.72-.54,.79-.88,.07-.36,.02-.99-.08-1.62,.14-.02,.27-.05,.42-.08,.18,.6,.4,1.16,.62,1.4,.84,.91,1.54,1.04,1.68,1.05,.13-.06,.72-.38,.76-1.58,.02-.4-.19-.95-.46-1.51,.12-.03,.23-.07,.34-.1,.38,.57,.73,1.08,.95,1.31,.28,.28,1.25,1.18,2.29,.92,.25-.55,.16-1.41-.23-2.03-.09-.14-.39-.52-.77-.97,.17-.07,.34-.14,.5-.21,.48,.58,.91,1.05,1.1,1.15,.77,.4,1.41,.47,1.93,.22,.08-.27-.03-1.21-.27-1.76-.04-.12-.31-.39-.7-.74,.08-.06,.17-.11,.25-.17,.66,.5,1.25,.9,1.48,.95,.84,.2,1.47,.12,1.92-.25,.02-.28-.32-1.17-.68-1.64-.08-.11-.41-.31-.89-.56-.05,0-.1-.02-.14-.03,.06-.06,.12-.13,.18-.19,.85,.38,1.62,.69,1.88,.69,.87,0,1.46-.22,1.82-.68-.04-.28-.58-1.06-1.04-1.45Zm.82-7.68l-.41,.19v-.03l.41-.16Zm-.42-2.77l-.53,.26s0-.02-.01-.03l.54-.23Zm-53.26,2.96l-.41-.19,.41,.16s0,.02,0,.03Zm.55-2.69l-.53-.26,.54,.23s0,.02,0,.03Zm25.63-13.37c.1,0,.2,.01,.31,.01,.2,0,.4-.02,.6-.04,.9,1.17,2.36,2.02,3.54,2.56-.42,.03-1.13-.12-1.87-.5-.12,1.02,.57,1.68,1.05,1.86-.66,1.13-1.22,2.21-1.6,3.18-.3,.76-.82,1.78-1.56,1.86-.74-.07-1.26-1.1-1.56-1.86-.38-.98-.95-2.06-1.6-3.18,.48-.18,1.17-.84,1.05-1.86-.75,.38-1.45,.53-1.87,.5,1.18-.54,2.62-1.38,3.52-2.53Zm3.89,27.69c-1.05,.95-2.37,1.38-3.43,1.38s-2.38-.43-3.43-1.38c-2.71-2.45-5.99-12.32,3.43-12.32s6.13,9.87,3.43,12.32Z"/>
    </g>
  </g>
</svg>